<svg width="48" height="48" viewBox="0 0 48 48" fill="none" xmlns="http://www.w3.org/2000/svg">
<path d="M20.9062 17.4375L26.1562 29.4375C26.4062 30.3125 26.125 30.9688 25.3125 31.4062C25.125 31.4688 24.9375 31.5 24.75 31.5C24.0625 31.5 23.5938 31.1875 23.3438 30.5625L22.5 28.5H16.5938L15.6562 30.5625C15.2188 31.375 14.5625 31.6562 13.6875 31.4062C12.875 30.9688 12.5938 30.3125 12.8438 29.4375L18.0938 17.4375C18.4062 16.875 18.875 16.5938 19.5 16.5938C20.125 16.5938 20.5938 16.875 20.9062 17.4375ZM17.9062 25.5H21.1875L19.5 21.75L17.9062 25.5ZM31.5 16.5C32.4375 16.5625 32.9375 17.0625 33 18V30C32.9375 30.9375 32.4375 31.4375 31.5 31.5C30.5625 31.4375 30.0625 30.9375 30 30V18C30.0625 17.0625 30.5625 16.5625 31.5 16.5ZM46.5 25.5H42V31.5H46.5C47.4375 31.5625 47.9375 32.0625 48 33C47.9375 33.9375 47.4375 34.4375 46.5 34.5H42V36C41.9375 37.6875 41.3438 39.0938 40.2188 40.2188C39.0938 41.3438 37.6875 41.9375 36 42H34.5V46.5C34.4375 47.4375 33.9375 47.9375 33 48C32.0625 47.9375 31.5625 47.4375 31.5 46.5V42H25.5V46.5C25.4375 47.4375 24.9375 47.9375 24 48C23.0625 47.9375 22.5625 47.4375 22.5 46.5V42H16.5V46.5C16.4375 47.4375 15.9375 47.9375 15 48C14.0625 47.9375 13.5625 47.4375 13.5 46.5V42H12C10.3125 41.9375 8.90625 41.3438 7.78125 40.2188C6.65625 39.0938 6.0625 37.6875 6 36V34.5H1.5C0.5625 34.4375 0.0625 33.9375 0 33C0.0625 32.0625 0.5625 31.5625 1.5 31.5H6V25.5H1.5C0.5625 25.4375 0.0625 24.9375 0 24C0.0625 23.0625 0.5625 22.5625 1.5 22.5H6V16.5H1.5C0.5625 16.4375 0.0625 15.9375 0 15C0.0625 14.0625 0.5625 13.5625 1.5 13.5H6V12C6.0625 10.3125 6.65625 8.90625 7.78125 7.78125C8.90625 6.65625 10.3125 6.0625 12 6H13.5V1.5C13.5625 0.5625 14.0625 0.0625 15 0C15.9375 0.0625 16.4375 0.5625 16.5 1.5V6H22.5V1.5C22.5625 0.5625 23.0625 0.0625 24 0C24.9375 0.0625 25.4375 0.5625 25.5 1.5V6H31.5V1.5C31.5625 0.5625 32.0625 0.0625 33 0C33.9375 0.0625 34.4375 0.5625 34.5 1.5V6H36C37.6875 6.0625 39.0938 6.65625 40.2188 7.78125C41.3438 8.90625 41.9375 10.3125 42 12V13.5H46.5C47.4375 13.5625 47.9375 14.0625 48 15C47.9375 15.9375 47.4375 16.4375 46.5 16.5H42V22.5H46.5C47.4375 22.5625 47.9375 23.0625 48 24C47.9375 24.9375 47.4375 25.4375 46.5 25.5ZM39 36V12C39 11.125 38.7188 10.4062 38.1562 9.84375C37.5938 9.28125 36.875 9 36 9H12C11.125 9 10.4062 9.28125 9.84375 9.84375C9.28125 10.4062 9 11.125 9 12V36C9 36.875 9.28125 37.5938 9.84375 38.1562C10.4062 38.7188 11.125 39 12 39H36C36.875 39 37.5938 38.7188 38.1562 38.1562C38.7188 37.5938 39 36.875 39 36Z" fill="#E62E2E"/>
</svg>
