<svg width="14" height="12" viewBox="0 0 14 12" fill="none" xmlns="http://www.w3.org/2000/svg">
<path d="M7.87891 11.5078C7.78125 11.4102 7.73242 11.293 7.73242 11.1563C7.73242 11.0391 7.77148 10.9317 7.84961 10.834L11.9805 6.46877L0.935547 6.46877C0.623047 6.42971 0.457031 6.28322 0.4375 6.02932C0.457031 5.73635 0.623047 5.57033 0.935547 5.53127L11.9805 5.53127L7.84961 1.16603C7.69336 0.93166 7.70313 0.70705 7.87891 0.492207C8.13281 0.316426 8.36719 0.326191 8.58203 0.521504L13.4453 5.67775C13.6016 5.8926 13.6016 6.10744 13.4453 6.32229L8.58203 11.4785C8.36719 11.6738 8.13281 11.6836 7.87891 11.5078Z" fill="#E62E2E"/>
</svg>
