<svg width="34" height="28" viewBox="0 0 34 28" fill="none" xmlns="http://www.w3.org/2000/svg">
<path d="M13.4453 1.79102C11.9505 1.82747 10.7109 2.33789 9.72656 3.32227C8.74218 4.30664 8.23177 5.54622 8.19531 7.04102C8.15885 7.58789 7.86718 7.87956 7.32031 7.91602C6.80989 7.87956 6.51822 7.58789 6.44531 7.04102C6.51822 5.07227 7.21093 3.41341 8.52343 2.06445C9.83593 0.751953 11.4766 0.077474 13.4453 0.0410156C15.4505 0.077474 17.1094 0.751953 18.4219 2.06445C19.7708 3.41341 20.4635 5.07227 20.5 7.04102C20.4635 7.58789 20.1719 7.87956 19.625 7.91602C19.0781 7.87956 18.7865 7.58789 18.75 7.04102C18.7135 5.54622 18.2031 4.30664 17.2187 3.32227C16.2344 2.33789 14.9766 1.82747 13.4453 1.79102ZM17 10.377L30.125 8.90039C30.9635 8.82747 31.5651 9.17383 31.9297 9.93945L33.6797 13.9863C33.9349 14.6426 33.9167 15.2624 33.625 15.8457C33.2969 16.429 32.7865 16.8118 32.0937 16.9941L23.4531 19.0176C22.3229 19.2363 21.4115 18.89 20.7187 17.9785L16.9453 12.7832L13.2812 17.9785C12.5885 18.8535 11.6771 19.1999 10.5469 19.0176L1.85156 16.9941C1.15885 16.8118 0.666663 16.429 0.374996 15.8457C0.0833293 15.2624 0.0651001 14.6426 0.320308 13.9863L2.07031 9.93945C2.43489 9.17383 3.03645 8.82747 3.875 8.90039L17 10.377ZM1.96093 14.6973C1.85156 14.9889 1.9427 15.1895 2.23437 15.2988L10.9297 17.3223C11.3307 17.3952 11.6406 17.2676 11.8594 16.9395L15.4141 11.9629L3.71093 10.5957L1.96093 14.6973ZM22.1406 16.9395C22.3594 17.2676 22.6693 17.3952 23.0703 17.3223L31.7656 15.2988C32.0573 15.1895 32.1484 14.9889 32.0391 14.6973L30.2891 10.5957L18.5859 11.9629L22.1406 16.9395ZM31 18.6348V22.5176C31 23.1009 30.8177 23.6296 30.4531 24.1035C30.0885 24.5775 29.6146 24.8874 29.0312 25.0332L17.6562 27.877C17.1823 27.9863 16.7448 27.9863 16.3437 27.877L4.96875 25.0332C4.38541 24.8874 3.91145 24.5775 3.54687 24.1035C3.14583 23.6296 2.94531 23.1009 2.94531 22.5176V18.6348L4.69531 19.127V22.5176C4.73177 22.9551 4.96875 23.2285 5.40625 23.3379L16.0703 26.0176V18.416C16.1432 17.8691 16.4349 17.5592 16.9453 17.4863C17.5286 17.5592 17.8385 17.8691 17.875 18.416V26.0176L28.5937 23.3379C28.9948 23.2285 29.1953 22.9551 29.1953 22.5176V19.127L31 18.6348ZM24.8203 7.31445C24.6016 7.78841 24.237 7.9707 23.7266 7.86133C23.2526 7.64258 23.0703 7.27799 23.1797 6.76758L24.9297 1.51758C25.1484 1.04362 25.513 0.861328 26.0234 0.970703C26.4974 1.18945 26.6797 1.55404 26.5703 2.06445L24.8203 7.31445Z" fill="white"/>
</svg>
