<svg width="28" height="28" viewBox="0 0 28 28" fill="none" xmlns="http://www.w3.org/2000/svg">
<path d="M18.375 7C17.8281 6.96354 17.5365 6.67188 17.5 6.125C17.5365 5.57812 17.8281 5.28646 18.375 5.25H21V2.625C21.0365 2.07812 21.3281 1.78646 21.875 1.75C22.4219 1.78646 22.7135 2.07812 22.75 2.625V5.25H25.375C25.9219 5.28646 26.2135 5.57812 26.25 6.125C26.2135 6.67188 25.9219 6.96354 25.375 7H22.75V9.625C22.7135 10.1719 22.4219 10.4635 21.875 10.5C21.3281 10.4635 21.0365 10.1719 21 9.625V7H18.375ZM9.24219 18.7578C9.57031 19.1953 9.57031 19.6146 9.24219 20.0156L7.38281 21.875L9.24219 23.7344C9.57031 24.1354 9.57031 24.5547 9.24219 24.9922C8.80469 25.3203 8.38542 25.3203 7.98438 24.9922L6.125 23.1328L4.26562 24.9922C3.86458 25.3203 3.44531 25.3203 3.00781 24.9922C2.67969 24.5547 2.67969 24.1354 3.00781 23.7344L4.86719 21.875L3.00781 20.0156C2.67969 19.6146 2.67969 19.1953 3.00781 18.7578C3.44531 18.4297 3.86458 18.4297 4.26562 18.7578L6.125 20.6172L7.98438 18.7578C8.38542 18.4297 8.80469 18.4297 9.24219 18.7578ZM2.625 7C2.07812 6.96354 1.78646 6.67188 1.75 6.125C1.78646 5.57812 2.07812 5.28646 2.625 5.25H9.625C10.1719 5.28646 10.4635 5.57812 10.5 6.125C10.4635 6.67188 10.1719 6.96354 9.625 7H2.625ZM27.125 13.125C27.6719 13.1615 27.9635 13.4531 28 14C27.9635 14.5469 27.6719 14.8385 27.125 14.875H14.875V27.125C14.8385 27.6719 14.5469 27.9635 14 28C13.4531 27.9635 13.1615 27.6719 13.125 27.125V14.875H0.875C0.328125 14.8385 0.0364583 14.5469 0 14C0.0364583 13.4531 0.328125 13.1615 0.875 13.125H13.125V0.875C13.1615 0.328125 13.4531 0.0364583 14 0C14.5469 0.0364583 14.8385 0.328125 14.875 0.875V13.125H27.125ZM25.375 22.75C25.9219 22.7865 26.2135 23.0781 26.25 23.625C26.2135 24.1719 25.9219 24.4635 25.375 24.5H18.375C17.8281 24.4635 17.5365 24.1719 17.5 23.625C17.5365 23.0781 17.8281 22.7865 18.375 22.75H25.375ZM25.375 19.25C25.9219 19.2865 26.2135 19.5781 26.25 20.125C26.2135 20.6719 25.9219 20.9635 25.375 21H18.375C17.8281 20.9635 17.5365 20.6719 17.5 20.125C17.5365 19.5781 17.8281 19.2865 18.375 19.25H25.375Z" fill="white"/>
</svg>
