<svg width="54" height="48" viewBox="0 0 54 48" fill="none" xmlns="http://www.w3.org/2000/svg">
<path d="M10.5 0C11.4375 0.0625 11.9375 0.5625 12 1.5V6H30V1.5C30.0625 0.5625 30.5625 0.0625 31.5 0C32.4375 0.0625 32.9375 0.5625 33 1.5V6H36C37.6875 6.0625 39.0938 6.65625 40.2188 7.78125C41.3438 8.90625 41.9375 10.3125 42 12V18.0938C41.5 18.0312 41 18 40.5 18C40 18 39.5 18.0312 39 18.0938V18H3V42C3 42.875 3.28125 43.5938 3.84375 44.1562C4.40625 44.7188 5.125 45 6 45H27.75C28.6875 46.125 29.7812 47.125 31.0312 48H6C4.3125 47.9375 2.90625 47.3438 1.78125 46.2188C0.65625 45.0938 0.0625 43.6875 0 42V12C0.0625 10.3125 0.65625 8.90625 1.78125 7.78125C2.90625 6.65625 4.3125 6.0625 6 6H9V1.5C9.0625 0.5625 9.5625 0.0625 10.5 0ZM36 9H6C5.125 9 4.40625 9.28125 3.84375 9.84375C3.28125 10.4062 3 11.125 3 12V15H39V12C39 11.125 38.7188 10.4062 38.1562 9.84375C37.5938 9.28125 36.875 9 36 9ZM40.4062 27C41.3438 27.0625 41.8438 27.5625 41.9062 28.5V33H45C45.9375 33.0625 46.4375 33.5625 46.5 34.5C46.4375 35.4375 45.9375 35.9375 45 36H40.4062C39.5312 35.9375 39.0312 35.4375 38.9062 34.5V28.5C39.0312 27.5625 39.5312 27.0625 40.4062 27ZM27 34.5C27.125 30.6875 28.4375 27.5 30.9375 24.9375C33.5 22.4375 36.6875 21.125 40.5 21C44.3125 21.125 47.5 22.4375 50.0625 24.9375C52.5625 27.5 53.875 30.6875 54 34.5C53.875 38.3125 52.5625 41.5 50.0625 44.0625C47.5 46.5625 44.3125 47.875 40.5 48C36.6875 47.875 33.5 46.5625 30.9375 44.0625C28.4375 41.5 27.125 38.3125 27 34.5ZM40.5 45C43.5 44.9375 45.9688 43.9062 47.9062 41.9062C49.9062 39.9688 50.9375 37.5 51 34.5C50.9375 31.5 49.9062 29.0312 47.9062 27.0938C45.9688 25.0938 43.5 24.0625 40.5 24C37.5 24.0625 35.0312 25.0938 33.0938 27.0938C31.0938 29.0312 30.0625 31.5 30 34.5C30.0625 37.5 31.0938 39.9688 33.0938 41.9062C35.0312 43.9062 37.5 44.9375 40.5 45Z" fill="#E62E2E"/>
</svg>
