<svg width="60" height="48" viewBox="0 0 60 48" fill="none" xmlns="http://www.w3.org/2000/svg">
<path d="M6 1.5C6.0625 0.5625 6.5625 0.0625 7.5 0H11.0625C13.125 0.125 14.5312 1.125 15.2812 3H56.625C57.625 3.0625 58.4062 3.4375 58.9688 4.125C59.5312 4.875 59.7188 5.75 59.5312 6.75L55.5938 22.5C55.2188 23.8125 54.5 24.875 53.4375 25.6875C52.375 26.5625 51.1562 27 49.7812 27H20.25L21 30.5625C21.375 32.0625 22.3438 32.875 23.9062 33H52.5C53.4375 33.0625 53.9375 33.5625 54 34.5C53.9375 35.4375 53.4375 35.9375 52.5 36H23.9062C22.4688 36 21.2188 35.5625 20.1562 34.6875C19.0938 33.8125 18.4062 32.6562 18.0938 31.2188L12.5625 4.21875C12.3125 3.46875 11.8125 3.0625 11.0625 3H7.5C6.5625 2.9375 6.0625 2.4375 6 1.5ZM49.7812 24C51.2188 23.9375 52.1875 23.1875 52.6875 21.75L56.625 6H15.9375L19.5938 24H49.7812ZM24 45C25.375 44.875 26.125 44.125 26.25 42.75C26.125 41.375 25.375 40.625 24 40.5C22.625 40.625 21.875 41.375 21.75 42.75C21.875 44.125 22.625 44.875 24 45ZM24 37.5C26 37.5625 27.5 38.4375 28.5 40.125C29.5 41.875 29.5 43.625 28.5 45.375C27.5 47.0625 26 47.9375 24 48C22 47.9375 20.5 47.0625 19.5 45.375C18.5 43.625 18.5 41.875 19.5 40.125C20.5 38.4375 22 37.5625 24 37.5ZM50.25 42.75C50.125 41.375 49.375 40.625 48 40.5C46.625 40.625 45.875 41.375 45.75 42.75C45.875 44.125 46.625 44.875 48 45C49.375 44.875 50.125 44.125 50.25 42.75ZM42.75 42.75C42.8125 40.75 43.6875 39.25 45.375 38.25C47.125 37.25 48.875 37.25 50.625 38.25C52.3125 39.25 53.1875 40.75 53.25 42.75C53.1875 44.75 52.3125 46.25 50.625 47.25C48.875 48.25 47.125 48.25 45.375 47.25C43.6875 46.25 42.8125 44.75 42.75 42.75ZM1.5 12H10.5C11.4375 12.0625 11.9375 12.5625 12 13.5C11.9375 14.4375 11.4375 14.9375 10.5 15H1.5C0.5625 14.9375 0.0625 14.4375 0 13.5C0.0625 12.5625 0.5625 12.0625 1.5 12ZM1.5 18H12C12.9375 18.0625 13.4375 18.5625 13.5 19.5C13.4375 20.4375 12.9375 20.9375 12 21H1.5C0.5625 20.9375 0.0625 20.4375 0 19.5C0.0625 18.5625 0.5625 18.0625 1.5 18ZM1.5 24H13.5C14.4375 24.0625 14.9375 24.5625 15 25.5C14.9375 26.4375 14.4375 26.9375 13.5 27H1.5C0.5625 26.9375 0.0625 26.4375 0 25.5C0.0625 24.5625 0.5625 24.0625 1.5 24Z" fill="#E62E2E"/>
</svg>
