<svg width="18" height="14" viewBox="0 0 18 14" fill="none" xmlns="http://www.w3.org/2000/svg">
<path d="M17.3984 1.10156C17.6328 1.36198 17.75 1.66146 17.75 2C17.75 2.33854 17.6328 2.63802 17.3984 2.89844L7.39844 12.8984C7.13802 13.1328 6.83854 13.25 6.5 13.25C6.16146 13.25 5.86198 13.1328 5.60156 12.8984L0.601562 7.89844C0.367188 7.63802 0.25 7.33854 0.25 7C0.25 6.66146 0.367188 6.36198 0.601562 6.10156C0.861979 5.86719 1.16146 5.75 1.5 5.75C1.83854 5.75 2.13802 5.86719 2.39844 6.10156L6.5 10.2422L15.6016 1.10156C15.862 0.867188 16.1615 0.75 16.5 0.75C16.8385 0.75 17.138 0.867188 17.3984 1.10156Z" fill="white"/>
</svg>
