<svg width="60" height="48" viewBox="0 0 60 48" fill="none" xmlns="http://www.w3.org/2000/svg">
<path d="M38.9062 1.98403L23.9062 46.984C23.5312 47.7965 22.9062 48.109 22.0312 47.9215C21.2188 47.5465 20.9062 46.9215 21.0938 46.0465L36.0938 1.04653C36.4688 0.171529 37.0938 -0.140971 37.9688 0.109029C38.7812 0.484029 39.0938 1.10903 38.9062 1.98403ZM16.0312 13.1403L3.75 24.0153L16.0312 34.8903C16.6562 35.5778 16.6562 36.2965 16.0312 37.0465C15.4062 37.6715 14.7188 37.7028 13.9688 37.1403L0.46875 25.0465C0.15625 24.7965 0 24.4528 0 24.0153C0 23.5778 0.15625 23.2028 0.46875 22.8903L13.9688 10.8903C14.7188 10.3278 15.4062 10.359 16.0312 10.984C16.6562 11.734 16.6562 12.4528 16.0312 13.1403ZM46.0312 10.8903L59.5312 22.8903C59.8438 23.2028 60 23.5465 60 23.9215C60 24.484 59.8438 24.859 59.5312 25.0465L46.0312 37.1403C45.2812 37.7028 44.5625 37.6715 43.875 37.0465C43.3125 36.2965 43.3438 35.5778 43.9688 34.8903L56.25 23.9215L43.9688 13.1403C43.3438 12.4528 43.3125 11.734 43.875 10.984C44.5625 10.359 45.2812 10.3278 46.0312 10.8903Z" fill="#E62E2E"/>
</svg>
