<svg width="48" height="48" viewBox="0 0 48 48" fill="none" xmlns="http://www.w3.org/2000/svg">
<path d="M15.75 8.90625C15.875 9.03125 16.0312 9.125 16.2188 9.1875C14.7812 9.25 13.375 9.375 12 9.5625V7.6875C12.125 6.25 12.7188 5.09375 13.7812 4.21875C14.8438 3.34375 16.1875 2.625 17.8125 2.0625C21.125 0.875 25.1875 0.25 30 0.1875C34.75 0.25 38.8125 0.875 42.1875 2.0625C43.8125 2.625 45.1562 3.34375 46.2188 4.21875C47.2812 5.09375 47.875 6.25 48 7.6875V28.125C47.9375 29.5625 47.3438 30.75 46.2188 31.6875C45.0938 32.625 43.75 33.375 42.1875 33.9375C41.25 34.3125 40.1875 34.6562 39 34.9688V31.875C39.75 31.625 40.4688 31.375 41.1562 31.125C42.5312 30.625 43.5625 30.0625 44.25 29.4375C44.8125 28.875 45.0625 28.4375 45 28.125V21.9375C44.1875 22.4375 43.25 22.875 42.1875 23.25C41.25 23.625 40.1875 23.9688 39 24.2812V21.1875C39.75 20.9375 40.4688 20.7188 41.1562 20.5312C42.5312 19.9688 43.5625 19.375 44.25 18.75C44.8125 18.125 45.0625 17.6875 45 17.4375V12C44.1875 12.5 43.25 12.9375 42.1875 13.3125C40.5625 13.9375 38.6875 14.4062 36.5625 14.7188C36.4375 14.5312 36.3125 14.4062 36.1875 14.3438C36.125 14.2812 36.0625 14.25 36 14.25C35.0625 13.375 34.0312 12.6562 32.9062 12.0938C36.2188 11.8438 38.9375 11.3125 41.0625 10.5C42.5625 10 43.625 9.46875 44.25 8.90625C44.8125 8.34375 45.0625 7.9375 45 7.6875C45.0625 7.4375 44.8125 7.03125 44.25 6.46875C43.625 5.90625 42.5625 5.375 41.0625 4.875C38.25 3.8125 34.5625 3.25 30 3.1875C25.4375 3.25 21.7188 3.8125 18.8438 4.875C17.4688 5.375 16.4375 5.90625 15.75 6.46875C15.125 7.03125 14.8438 7.4375 14.9062 7.6875C14.8438 7.9375 15.125 8.34375 15.75 8.90625ZM0 19.6875C0.125 18.25 0.71875 17.0625 1.78125 16.125C2.84375 15.3125 4.1875 14.625 5.8125 14.0625C9.125 12.875 13.1875 12.25 18 12.1875C22.75 12.25 26.8125 12.875 30.1875 14.0625C31.8125 14.625 33.1562 15.3125 34.2188 16.125C35.2812 17.0625 35.875 18.25 36 19.6875V40.125C35.9375 41.5625 35.3438 42.75 34.2188 43.6875C33.0938 44.625 31.75 45.375 30.1875 45.9375C26.875 47.1875 22.8125 47.8125 18 47.8125C13.125 47.8125 9.0625 47.1875 5.8125 45.9375C4.1875 45.375 2.84375 44.625 1.78125 43.6875C0.65625 42.75 0.0625 41.5625 0 40.125V19.6875ZM3.75 20.9062C4.4375 21.4688 5.46875 22 6.84375 22.5C9.71875 23.5625 13.4375 24.125 18 24.1875C22.5625 24.125 26.25 23.5625 29.0625 22.5C30.5625 22 31.625 21.4688 32.25 20.9062C32.8125 20.3438 33.0625 19.9375 33 19.6875C33.0625 19.4375 32.8125 19.0312 32.25 18.4688C31.625 17.9062 30.5625 17.375 29.0625 16.875C26.25 15.75 22.5625 15.1875 18 15.1875C13.4375 15.1875 9.71875 15.75 6.84375 16.875C5.46875 17.375 4.4375 17.9062 3.75 18.4688C3.1875 19.0312 2.9375 19.4375 3 19.6875C2.9375 19.9375 3.1875 20.3438 3.75 20.9062ZM30.1875 25.3125C26.8125 26.5 22.75 27.125 18 27.1875C13.1875 27.125 9.125 26.5 5.8125 25.3125C4.75 24.9375 3.8125 24.5 3 24V29.4375C2.9375 29.6875 3.21875 30.125 3.84375 30.75C4.46875 31.375 5.46875 31.9688 6.84375 32.5312C9.71875 33.5938 13.4375 34.1562 18 34.2188C22.5625 34.1562 26.2812 33.5938 29.1562 32.5312C30.5312 31.9688 31.5625 31.375 32.25 30.75C32.8125 30.125 33.0625 29.6875 33 29.4375V24C32.1875 24.5 31.25 24.9375 30.1875 25.3125ZM3.84375 41.4375C4.46875 42.0625 5.46875 42.625 6.84375 43.125C9.71875 44.25 13.4375 44.8125 18 44.8125C22.5625 44.8125 26.2812 44.25 29.1562 43.125C30.5312 42.625 31.5625 42.0625 32.25 41.4375C32.8125 40.875 33.0625 40.4375 33 40.125V33.9375C32.1875 34.4375 31.25 34.875 30.1875 35.25C26.875 36.5 22.8125 37.1562 18 37.2188C13.125 37.1562 9.0625 36.5 5.8125 35.25C4.75 34.875 3.78125 34.4375 2.90625 33.9375V40.125C2.90625 40.4375 3.21875 40.875 3.84375 41.4375Z" fill="#E62E2E"/>
</svg>
