<svg width="60" height="48" viewBox="0 0 60 48" fill="none" xmlns="http://www.w3.org/2000/svg">
<path d="M54 12C55.6875 12.0625 57.0938 12.6562 58.2188 13.7812C59.3438 14.9062 59.9375 16.3125 60 18V42C59.9375 43.6875 59.3438 45.0938 58.2188 46.2188C57.0938 47.3438 55.6875 47.9375 54 48H42C40.3125 47.9375 38.9062 47.3438 37.7812 46.2188C36.6562 45.0938 36.0625 43.6875 36 42V18C36.0625 16.3125 36.6562 14.9062 37.7812 13.7812C38.9062 12.6562 40.3125 12.0625 42 12H54ZM57 42V18C57 17.125 56.7188 16.4062 56.1562 15.8438C55.5938 15.2812 54.875 15 54 15H42C41.125 15 40.4062 15.2812 39.8438 15.8438C39.2812 16.4062 39 17.125 39 18V42C39 42.875 39.2812 43.5938 39.8438 44.1562C40.4062 44.7188 41.125 45 42 45H54C54.875 45 55.5938 44.7188 56.1562 44.1562C56.7188 43.5938 57 42.875 57 42ZM9 6V27H31.5C32.4375 27.0625 32.9375 27.5625 33 28.5C32.9375 29.4375 32.4375 29.9375 31.5 30H3C3 30.875 3.28125 31.5938 3.84375 32.1562C4.40625 32.7188 5.125 33 6 33H31.5C32.4375 33.0625 32.9375 33.5625 33 34.5C32.9375 35.4375 32.4375 35.9375 31.5 36H6C4.3125 35.9375 2.90625 35.3438 1.78125 34.2188C0.65625 33.0938 0.0625 31.6875 0 30V28.5C0.0625 27.5625 0.5625 27.0625 1.5 27H6V6C6.0625 4.3125 6.65625 2.90625 7.78125 1.78125C8.90625 0.65625 10.3125 0.0625 12 0H42C43.6875 0.0625 45.0938 0.65625 46.2188 1.78125C47.3438 2.90625 47.9375 4.3125 48 6V7.5C47.8125 8.4375 47.2812 8.9375 46.4062 9C45.5938 8.9375 45.125 8.4375 45 7.5V6C45 5.125 44.7188 4.40625 44.1562 3.84375C43.5938 3.28125 42.875 3 42 3H12C11.125 3 10.4062 3.28125 9.84375 3.84375C9.28125 4.40625 9 5.125 9 6Z" fill="#E62E2E"/>
</svg>
