<svg width="18" height="16" viewBox="0 0 18 16" fill="none" xmlns="http://www.w3.org/2000/svg">
<path d="M1.31641 1.13672L4.37891 3.54297C4.98047 3.05078 5.66406 2.64974 6.42969 2.33984C7.21354 2.04818 8.07031 1.89323 9 1.875C10.112 1.89323 11.1055 2.11198 11.9805 2.53125C12.8555 2.95052 13.6211 3.47005 14.2773 4.08984C14.9154 4.69141 15.444 5.3112 15.8633 5.94922C16.2826 6.58724 16.6016 7.16146 16.8203 7.67188C16.8932 7.89062 16.8932 8.10938 16.8203 8.32812C16.6198 8.78385 16.3372 9.29427 15.9727 9.85938C15.6081 10.4427 15.1615 11.0169 14.6328 11.582L17.5039 13.8242C17.7956 14.0977 17.832 14.4076 17.6133 14.7539C17.3398 15.0456 17.0299 15.082 16.6836 14.8633L0.496094 2.17578C0.204427 1.90234 0.167969 1.59245 0.386719 1.24609C0.660156 0.954427 0.970052 0.917969 1.31641 1.13672ZM6.34766 5.10156L8.80859 7.01562C8.9362 6.79688 9 6.54167 9 6.25C9 6.04948 8.97266 5.86719 8.91797 5.70312C8.88151 5.52083 8.94531 5.41146 9.10938 5.375C9.67448 5.41146 10.1849 5.60286 10.6406 5.94922C11.0781 6.29557 11.3789 6.7513 11.543 7.31641C11.6888 7.9362 11.6432 8.51953 11.4062 9.06641L12.4727 9.88672C12.7826 9.32161 12.9375 8.69271 12.9375 8C12.901 6.88802 12.5182 5.95833 11.7891 5.21094C11.0417 4.48177 10.112 4.09896 9 4.0625C7.96094 4.08073 7.07682 4.42708 6.34766 5.10156ZM10.4492 11.6641L12.4453 13.25C11.4609 13.7969 10.3125 14.0885 9 14.125C7.88802 14.1068 6.89453 13.888 6.01953 13.4688C5.14453 13.0495 4.38802 12.5299 3.75 11.9102C3.09375 11.3086 2.55599 10.6888 2.13672 10.0508C1.71745 9.41276 1.40755 8.83854 1.20703 8.32812C1.11589 8.10938 1.11589 7.89062 1.20703 7.67188C1.46224 7.01562 1.89974 6.26823 2.51953 5.42969L5.08984 7.45312C5.07161 7.63542 5.0625 7.81771 5.0625 8C5.09896 9.11198 5.48177 10.0417 6.21094 10.7891C6.95833 11.5182 7.88802 11.901 9 11.9375C9.51042 11.9375 9.99349 11.8464 10.4492 11.6641Z" fill="#828A99"/>
</svg>
