<svg width="16" height="14" viewBox="0 0 16 14" fill="none" xmlns="http://www.w3.org/2000/svg">
<path d="M7.98633 0.875C9.09831 0.893229 10.0918 1.11198 10.9668 1.53125C11.8418 1.95052 12.6074 2.47005 13.2637 3.08984C13.9017 3.69141 14.4303 4.3112 14.8496 4.94922C15.2689 5.58724 15.5879 6.16146 15.8066 6.67188C15.8978 6.89062 15.8978 7.10938 15.8066 7.32812C15.5879 7.83854 15.2689 8.41276 14.8496 9.05078C14.4303 9.6888 13.9017 10.3086 13.2637 10.9102C12.6074 11.5299 11.8418 12.0495 10.9668 12.4688C10.0918 12.888 9.09831 13.1068 7.98633 13.125C6.87435 13.1068 5.88086 12.888 5.00586 12.4688C4.13086 12.0495 3.36523 11.5299 2.70898 10.9102C2.07096 10.3086 1.54232 9.6888 1.12305 9.05078C0.703776 8.41276 0.39388 7.83854 0.193359 7.32812C0.102214 7.10938 0.102214 6.89062 0.193359 6.67188C0.39388 6.16146 0.703776 5.58724 1.12305 4.94922C1.54232 4.3112 2.07096 3.69141 2.70898 3.08984C3.36523 2.47005 4.13086 1.95052 5.00586 1.53125C5.88086 1.11198 6.87435 0.893229 7.98633 0.875ZM4.04883 7C4.04883 7.71094 4.22201 8.36719 4.56836 8.96875C4.91471 9.57031 5.39779 10.0534 6.01758 10.418C6.63737 10.7643 7.29362 10.9375 7.98633 10.9375C8.67904 10.9375 9.33529 10.7643 9.95508 10.418C10.5749 10.0534 11.0579 9.57031 11.4043 8.96875C11.7507 8.36719 11.9238 7.71094 11.9238 7C11.9238 6.28906 11.7507 5.63281 11.4043 5.03125C11.0579 4.42969 10.5749 3.94661 9.95508 3.58203C9.33529 3.23568 8.67904 3.0625 7.98633 3.0625C7.29362 3.0625 6.63737 3.23568 6.01758 3.58203C5.39779 3.94661 4.91471 4.42969 4.56836 5.03125C4.22201 5.63281 4.04883 6.28906 4.04883 7ZM7.98633 5.25C7.98633 5.04948 7.95898 4.86719 7.9043 4.70312C7.86784 4.52083 7.93164 4.41146 8.0957 4.375C8.66081 4.41146 9.17122 4.60286 9.62695 4.94922C10.0645 5.29557 10.3652 5.7513 10.5293 6.31641C10.6934 7.04557 10.6022 7.71094 10.2559 8.3125C9.90951 8.91406 9.38086 9.32422 8.66992 9.54297C7.94076 9.70703 7.27539 9.61589 6.67383 9.26953C6.07227 8.92318 5.66211 8.39453 5.44336 7.68359C5.38867 7.48307 5.36133 7.29167 5.36133 7.10938C5.39779 6.94531 5.50716 6.88151 5.68945 6.91797C5.85352 6.97266 6.03581 7 6.23633 7C6.72852 6.98177 7.13867 6.80859 7.4668 6.48047C7.79492 6.15234 7.9681 5.74219 7.98633 5.25Z" fill="#828A99"/>
</svg>
