<svg width="48" height="48" viewBox="0 0 48 48" fill="none" xmlns="http://www.w3.org/2000/svg">
<path d="M3 24V28.5C2.9375 29.4375 2.4375 29.9375 1.5 30C0.5625 29.9375 0.0625 29.4375 0 28.5V24C0.0625 19.5 1.15625 15.4688 3.28125 11.9062C5.40625 8.28125 8.28125 5.40625 11.9062 3.28125C15.4688 1.15625 19.5 0.0625 24 0C28.5 0.0625 32.5312 1.15625 36.0938 3.28125C39.7188 5.40625 42.5938 8.28125 44.7188 11.9062C46.8438 15.4688 47.9375 19.5 48 24V37.5C47.9375 39.625 47.2188 41.4062 45.8438 42.8438C44.4062 44.2188 42.625 44.9375 40.5 45H32.7188C31.9688 46.875 30.5625 47.875 28.5 48H22.5C21.25 47.9375 20.1875 47.5 19.3125 46.6875C18.5 45.8125 18.0625 44.75 18 43.5C18.0625 42.25 18.5 41.1875 19.3125 40.3125C20.1875 39.5 21.25 39.0625 22.5 39H28.5C30.5625 39.125 31.9688 40.125 32.7188 42H40.5C41.75 42 42.8125 41.5625 43.6875 40.6875C44.5 39.8125 44.9375 38.75 45 37.5V24C44.9375 20.0625 43.9688 16.5312 42.0938 13.4062C40.2812 10.2188 37.7812 7.71875 34.5938 5.90625C31.4688 4.03125 27.9375 3.0625 24 3C20.0625 3.0625 16.5312 4.03125 13.4062 5.90625C10.2188 7.71875 7.71875 10.2188 5.90625 13.4062C4.03125 16.5312 3.0625 20.0625 3 24ZM30 43.5C29.9375 42.5625 29.4375 42.0625 28.5 42H22.5C21.5625 42.0625 21.0625 42.5625 21 43.5C21.0625 44.4375 21.5625 44.9375 22.5 45H28.5C29.4375 44.9375 29.9375 44.4375 30 43.5ZM13.5 21C12.25 21.0625 11.1875 21.5 10.3125 22.3125C9.5 23.1875 9.0625 24.25 9 25.5V28.5C9.0625 29.75 9.5 30.8125 10.3125 31.6875C11.1875 32.5 12.25 32.9375 13.5 33H15V21H13.5ZM6 25.5C6.0625 23.375 6.78125 21.5938 8.15625 20.1562C9.59375 18.7812 11.375 18.0625 13.5 18H15C15.875 18 16.5938 18.2812 17.1562 18.8438C17.7188 19.4062 18 20.125 18 21V33C18 33.875 17.7188 34.5938 17.1562 35.1562C16.5938 35.7188 15.875 36 15 36H13.5C11.375 35.9375 9.59375 35.2188 8.15625 33.8438C6.78125 32.4062 6.0625 30.625 6 28.5V25.5ZM33 21V33H34.5C35.75 32.9375 36.8125 32.5 37.6875 31.6875C38.5 30.8125 38.9375 29.75 39 28.5V25.5C38.9375 24.25 38.5 23.1875 37.6875 22.3125C36.8125 21.5 35.75 21.0625 34.5 21H33ZM34.5 18C36.625 18.0625 38.4062 18.7812 39.8438 20.1562C41.2188 21.5938 41.9375 23.375 42 25.5V28.5C41.9375 30.625 41.2188 32.4062 39.8438 33.8438C38.4062 35.2188 36.625 35.9375 34.5 36H33C32.125 36 31.4062 35.7188 30.8438 35.1562C30.2812 34.5938 30 33.875 30 33V21C30 20.125 30.2812 19.4062 30.8438 18.8438C31.4062 18.2812 32.125 18 33 18H34.5Z" fill="#E62E2E"/>
</svg>
