<svg width="16" height="14" viewBox="0 0 16 14" fill="none" xmlns="http://www.w3.org/2000/svg">
<path d="M13.625 1.84375H2.375C2.08203 1.86328 1.92578 2.01953 1.90625 2.3125V11.6875L2.05273 11.5117L4.39648 8.23047C4.5332 8.03516 4.71875 7.9375 4.95312 7.9375C5.1875 7.9375 5.38281 8.03516 5.53906 8.23047L6.41797 9.49023L8.84961 6.32617C8.98633 6.15039 9.17188 6.0625 9.40625 6.0625C9.64062 6.0625 9.82617 6.15039 9.96289 6.32617L13.9473 11.4824L14.0938 11.6875V2.3125C14.0742 2.01953 13.918 1.86328 13.625 1.84375ZM2.375 0.4375H13.625C14.1523 0.457031 14.5918 0.642578 14.9434 0.994141C15.2949 1.3457 15.4805 1.78516 15.5 2.3125V11.6875C15.4805 12.2148 15.2949 12.6543 14.9434 13.0059C14.5918 13.3574 14.1523 13.543 13.625 13.5625H2.375C1.84766 13.543 1.4082 13.3574 1.05664 13.0059C0.705078 12.6543 0.519531 12.2148 0.5 11.6875V2.3125C0.519531 1.78516 0.705078 1.3457 1.05664 0.994141C1.4082 0.642578 1.84766 0.457031 2.375 0.4375ZM4.71875 6.0625C4.19141 6.04297 3.78125 5.80859 3.48828 5.35938C3.25391 4.89062 3.25391 4.42188 3.48828 3.95312C3.78125 3.50391 4.19141 3.26953 4.71875 3.25C5.24609 3.26953 5.65625 3.50391 5.94922 3.95312C6.18359 4.42188 6.18359 4.89062 5.94922 5.35938C5.65625 5.80859 5.24609 6.04297 4.71875 6.0625Z" fill="white"/>
</svg>
