<svg width="41" height="42" viewBox="0 0 41 42" fill="none" xmlns="http://www.w3.org/2000/svg">
<path d="M8.25 11.0156C8.375 9.64062 9.125 8.89062 10.5 8.76562C11.875 8.89062 12.625 9.64062 12.75 11.0156C12.625 12.3906 11.875 13.1406 10.5 13.2656C9.125 13.1406 8.375 12.3906 8.25 11.0156ZM0 5.01562C0.0625 3.76562 0.5 2.70312 1.3125 1.82812C2.1875 1.01562 3.25 0.578125 4.5 0.515625H18.5625C20.1875 0.515625 21.5938 1.10938 22.7812 2.29688L39.2812 18.7969C40.4062 19.9844 40.9688 21.3906 40.9688 23.0156C40.9688 24.6406 40.4062 26.0469 39.2812 27.2344L26.7188 39.7969C25.5312 40.9219 24.125 41.4844 22.5 41.4844C20.875 41.4844 19.4688 40.9219 18.2812 39.7969L1.78125 23.2969C0.59375 22.1094 0 20.7031 0 19.0781V5.01562ZM3.84375 21.1406L20.3438 37.6406C20.9688 38.2031 21.6875 38.4844 22.5 38.4844C23.3125 38.4844 24.0312 38.2031 24.6562 37.6406L37.125 25.1719C37.6875 24.5469 37.9688 23.8281 37.9688 23.0156C37.9688 22.2031 37.6875 21.4844 37.125 20.8594L20.625 4.35938C20 3.79688 19.3125 3.51562 18.5625 3.51562H4.5C3.5625 3.57812 3.0625 4.07812 3 5.01562V19.0781C3 19.8281 3.28125 20.5156 3.84375 21.1406Z" fill="#E62E2E"/>
</svg>
