<svg width="60" height="48" viewBox="0 0 60 48" fill="none" xmlns="http://www.w3.org/2000/svg">
<path d="M7.5 15C6.5625 14.9375 6.0625 14.4375 6 13.5V6C6.0625 4.3125 6.65625 2.90625 7.78125 1.78125C8.90625 0.65625 10.3125 0.0625 12 0H36C37.6875 0.0625 39.0938 0.65625 40.2188 1.78125C41.3438 2.90625 41.9375 4.3125 42 6H39C39 5.125 38.7188 4.40625 38.1562 3.84375C37.5938 3.28125 36.875 3 36 3H12C11.125 3 10.4062 3.28125 9.84375 3.84375C9.28125 4.40625 9 5.125 9 6V13.5C8.9375 14.4375 8.4375 14.9375 7.5 15ZM54 9C55.6875 9.0625 57.0938 9.65625 58.2188 10.7812C59.3438 11.9062 59.9375 13.3125 60 15V33C59.9375 34.6875 59.3438 36.0938 58.2188 37.2188C57.0938 38.3438 55.6875 38.9375 54 39H40.5C39.5625 38.9375 39.0625 38.4375 39 37.5C39.0625 36.5625 39.5625 36.0625 40.5 36H54C54.875 36 55.5938 35.7188 56.1562 35.1562C56.7188 34.5938 57 33.875 57 33V15C57 14.125 56.7188 13.4062 56.1562 12.8438C55.5938 12.2812 54.875 12 54 12H24C23.125 12 22.4062 12.2812 21.8438 12.8438C21.2812 13.4062 21 14.125 21 15H18C18.0625 13.3125 18.6562 11.9062 19.7812 10.7812C20.9062 9.65625 22.3125 9.0625 24 9H54ZM52.5 24H46.5C45.5625 23.9375 45.0625 23.4375 45 22.5V16.5C45.0625 15.5625 45.5625 15.0625 46.5 15H52.5C53.4375 15.0625 53.9375 15.5625 54 16.5V22.5C53.9375 23.4375 53.4375 23.9375 52.5 24ZM48 18V21H51V18H48ZM30 18C31.6875 18.0625 33.0938 18.6562 34.2188 19.7812C35.3438 20.9062 35.9375 22.3125 36 24V42C35.9375 43.6875 35.3438 45.0938 34.2188 46.2188C33.0938 47.3438 31.6875 47.9375 30 48H6C4.3125 47.9375 2.90625 47.3438 1.78125 46.2188C0.65625 45.0938 0.0625 43.6875 0 42V24C0.0625 22.3125 0.65625 20.9062 1.78125 19.7812C2.90625 18.6562 4.3125 18.0625 6 18H30ZM33 42V29.4375C32.8125 29.5625 32.5625 29.75 32.25 30C31.6875 30.4375 30.7812 31.125 29.5312 32.0625C28.2812 33 26.4375 34.3125 24 36C23.875 36.125 23.7188 36.25 23.5312 36.375C22.9062 36.875 22.0938 37.4375 21.0938 38.0625C20.0938 38.625 19.0625 38.9375 18 39C16.9375 38.9375 15.9062 38.625 14.9062 38.0625C13.9062 37.4375 13.0938 36.875 12.4688 36.375C12.2812 36.25 12.125 36.125 12 36C9.5625 34.3125 7.71875 33 6.46875 32.0625C5.21875 31.125 4.28125 30.4062 3.65625 29.9062C3.40625 29.7188 3.1875 29.5625 3 29.4375V42C3 42.875 3.28125 43.5938 3.84375 44.1562C4.40625 44.7188 5.125 45 6 45H30C30.875 45 31.5938 44.7188 32.1562 44.1562C32.7188 43.5938 33 42.875 33 42ZM33 25.7812V24C33 23.125 32.7188 22.4062 32.1562 21.8438C31.5938 21.2812 30.875 21 30 21H6C5.125 21 4.40625 21.2812 3.84375 21.8438C3.28125 22.4062 3 23.125 3 24V25.5C3.625 26 4.1875 26.4375 4.6875 26.8125C5.25 27.25 6.15625 27.9375 7.40625 28.875C8.65625 29.8125 10.7812 31.375 13.7812 33.5625C14.0312 33.75 14.2812 33.9688 14.5312 34.2188C15.0312 34.5938 15.5938 34.9688 16.2188 35.3438C16.8438 35.7812 17.4375 36 18 36C19 35.875 20 35.4062 21 34.5938C21.5 34.2812 21.9062 34.0625 22.2188 33.9375C25.1562 31.75 27.25 30.1875 28.5 29.25C29.8125 28.3125 30.7188 27.625 31.2188 27.1875C31.7188 26.75 32.3125 26.2812 33 25.7812Z" fill="#E62E2E"/>
</svg>
