<svg width="16" height="15" viewBox="0 0 16 15" fill="none" xmlns="http://www.w3.org/2000/svg">
<path d="M10.8125 2.8125C10.5391 2.8125 10.3145 2.72461 10.1387 2.54883C9.96289 2.37305 9.875 2.14844 9.875 1.875C9.875 1.60156 9.96289 1.37695 10.1387 1.20117C10.3145 1.02539 10.5391 0.9375 10.8125 0.9375H12.6875C13.4883 0.957031 14.1523 1.23047 14.6797 1.75781C15.207 2.28516 15.4805 2.94922 15.5 3.75V11.25C15.4805 12.0508 15.207 12.7148 14.6797 13.2422C14.1523 13.7695 13.4883 14.043 12.6875 14.0625H10.8125C10.5391 14.0625 10.3145 13.9746 10.1387 13.7988C9.96289 13.623 9.875 13.3984 9.875 13.125C9.875 12.8516 9.96289 12.627 10.1387 12.4512C10.3145 12.2754 10.5391 12.1875 10.8125 12.1875H12.6875C12.9609 12.1875 13.1855 12.0996 13.3613 11.9238C13.5371 11.748 13.625 11.5234 13.625 11.25V3.75C13.625 3.47656 13.5371 3.25195 13.3613 3.07617C13.1855 2.90039 12.9609 2.8125 12.6875 2.8125H10.8125ZM10.5488 8.17383L6.79883 11.9238C6.60352 12.0996 6.37891 12.1875 6.125 12.1875C5.87109 12.1875 5.64648 12.0996 5.45117 11.9238C5.27539 11.7285 5.1875 11.5039 5.1875 11.25C5.1875 10.9961 5.27539 10.7715 5.45117 10.5762L7.61914 8.4375H1.4375C1.16406 8.4375 0.939453 8.34961 0.763672 8.17383C0.587891 7.99805 0.5 7.77344 0.5 7.5C0.5 7.22656 0.587891 7.00195 0.763672 6.82617C0.939453 6.65039 1.16406 6.5625 1.4375 6.5625H7.61914L5.45117 4.42383C5.27539 4.22852 5.1875 4.00391 5.1875 3.75C5.1875 3.49609 5.27539 3.27148 5.45117 3.07617C5.64648 2.90039 5.87109 2.8125 6.125 2.8125C6.37891 2.8125 6.60352 2.90039 6.79883 3.07617L10.5488 6.82617C10.7246 7.02148 10.8125 7.24609 10.8125 7.5C10.8125 7.75391 10.7246 7.97852 10.5488 8.17383Z" fill="#E62E2E"/>
</svg>
