<svg width="16" height="12" viewBox="0 0 16 12" fill="none" xmlns="http://www.w3.org/2000/svg">
<path d="M1.90625 0.375H14.0938C14.4844 0.394531 14.8164 0.53125 15.0898 0.785156C15.3438 1.05859 15.4805 1.39062 15.5 1.78125C15.4805 2.25 15.2949 2.62109 14.9434 2.89453L8.55664 7.69922C8.18555 7.93359 7.81445 7.93359 7.44336 7.69922L1.05664 2.89453C0.705078 2.62109 0.519531 2.25 0.5 1.78125C0.519531 1.39062 0.65625 1.05859 0.910156 0.785156C1.18359 0.53125 1.51562 0.394531 1.90625 0.375ZM0.5 3.65625L6.88672 8.43164C7.21875 8.68555 7.58984 8.8125 8 8.8125C8.41016 8.8125 8.78125 8.68555 9.11328 8.43164L15.5 3.65625V9.75C15.4805 10.2773 15.2949 10.7168 14.9434 11.0684C14.5918 11.4199 14.1523 11.6055 13.625 11.625H2.375C1.84766 11.6055 1.4082 11.4199 1.05664 11.0684C0.705078 10.7168 0.519531 10.2773 0.5 9.75V3.65625Z" fill="white"/>
</svg>
