<svg width="54" height="48" viewBox="0 0 54 48" fill="none" xmlns="http://www.w3.org/2000/svg">
<path d="M38.25 11.25C38.1875 13 37.5625 15.0312 36.375 17.3438C35.1875 19.6562 33.8125 21.875 32.25 24C30.75 26.1875 29.4688 27.9062 28.4062 29.1562C28.0312 29.6562 27.5625 29.9062 27 29.9062C26.4375 29.9062 25.9688 29.6562 25.5938 29.1562C24.5312 27.9062 23.25 26.1875 21.75 24C20.1875 21.875 18.8125 19.6562 17.625 17.3438C16.4375 15.0312 15.8125 13 15.75 11.25C15.8125 8.0625 16.9062 5.40625 19.0312 3.28125C21.1562 1.15625 23.8125 0.0625 27 0C30.1875 0.0625 32.8438 1.15625 34.9688 3.28125C37.0938 5.40625 38.1875 8.0625 38.25 11.25ZM27 3C24.6875 3.0625 22.75 3.875 21.1875 5.4375C19.625 7 18.8125 8.9375 18.75 11.25C18.75 11.9375 19.0312 13 19.5938 14.4375C20.2188 16 21.0625 17.5938 22.125 19.2188C23.8125 21.9062 25.4375 24.2188 27 26.1562C28.5625 24.2188 30.1875 21.9062 31.875 19.2188C32.9375 17.5938 33.7812 16 34.4062 14.4375C34.9688 13 35.25 11.9375 35.25 11.25C35.1875 8.9375 34.375 7 32.8125 5.4375C31.25 3.875 29.3125 3.0625 27 3ZM39.8438 16.9688L50.9062 12.5625C51.7188 12.25 52.4062 12.3125 52.9688 12.75C53.5938 13.1875 53.9375 13.8125 54 14.625V40.0312C53.9375 40.9688 53.4688 41.6562 52.5938 42.0938L38.0625 47.9062C37.75 48.0312 37.4375 48.0312 37.125 47.9062L16.5938 42.0938L3.09375 47.5312C2.34375 47.7812 1.65625 47.6875 1.03125 47.25C0.40625 46.8125 0.0625 46.1875 0 45.375V19.9688C0.0625 19.0312 0.53125 18.3438 1.40625 17.9062L12.9375 13.3125C13.1875 14.3125 13.5 15.2812 13.875 16.2188L3 20.5312V44.25L15 39.4688V28.5C15.0625 27.5625 15.5625 27.0625 16.5 27C17.4375 27.0625 17.9375 27.5625 18 28.5V39.375L36 44.5312V28.4062C36.0625 27.5312 36.5625 27.0312 37.5 26.9062C38.4375 27.0312 38.9375 27.5312 39 28.4062V44.25L51 39.4688V15.75L38.0625 20.9062C38 20.9062 37.9062 20.9375 37.7812 21C38.5938 19.625 39.2812 18.2812 39.8438 16.9688Z" fill="#E62E2E"/>
</svg>
