<svg width="42" height="48" viewBox="0 0 42 48" fill="none" xmlns="http://www.w3.org/2000/svg">
<path d="M6 45H9V48H6C4.3125 47.9375 2.90625 47.3438 1.78125 46.2188C0.65625 45.0938 0.0625 43.6875 0 42V6C0.0625 4.3125 0.65625 2.90625 1.78125 1.78125C2.90625 0.65625 4.3125 0.0625 6 0H20.625C21.875 0 22.9375 0.4375 23.8125 1.3125L34.6875 12.1875C35.5625 13.0625 36 14.125 36 15.375V27H33V18H22.5C21.25 17.9375 20.1875 17.5 19.3125 16.6875C18.5 15.8125 18.0625 14.75 18 13.5V3H6C5.125 3 4.40625 3.28125 3.84375 3.84375C3.28125 4.40625 3 5.125 3 6V42C3 42.875 3.28125 43.5938 3.84375 44.1562C4.40625 44.7188 5.125 45 6 45ZM33 15C32.875 14.75 32.7188 14.5312 32.5312 14.3438L21.6562 3.46875C21.4688 3.28125 21.25 3.15625 21 3.09375V13.5C21.0625 14.4375 21.5625 14.9375 22.5 15H33ZM15 33H17.25C18.75 33.0625 20 33.5625 21 34.5C21.9375 35.5 22.4375 36.75 22.5 38.25C22.4375 39.75 21.9375 41 21 42C20 42.9375 18.75 43.4375 17.25 43.5H16.5V46.5C16.4375 47.4375 15.9375 47.9375 15 48C14.0625 47.9375 13.5625 47.4375 13.5 46.5V34.5C13.5625 33.5625 14.0625 33.0625 15 33ZM17.25 40.5C18.625 40.375 19.375 39.625 19.5 38.25C19.375 36.875 18.625 36.125 17.25 36H16.5V40.5H17.25ZM24 34.5C24.0625 33.5625 24.5625 33.0625 25.5 33H27.75C29 33.0625 30.0625 33.5 30.9375 34.3125C31.75 35.1875 32.1875 36.25 32.25 37.5V43.5C32.1875 44.75 31.75 45.8125 30.9375 46.6875C30.0625 47.5 29 47.9375 27.75 48H25.5C24.5625 47.9375 24.0625 47.4375 24 46.5V34.5ZM27 45H27.75C28.6875 44.9375 29.1875 44.4375 29.25 43.5V37.5C29.1875 36.5625 28.6875 36.0625 27.75 36H27V45ZM36 33H40.5C41.4375 33.0625 41.9375 33.5625 42 34.5C41.9375 35.4375 41.4375 35.9375 40.5 36H37.5V39H40.5C41.4375 39.0625 41.9375 39.5625 42 40.5C41.9375 41.4375 41.4375 41.9375 40.5 42H37.5V46.5C37.4375 47.4375 36.9375 47.9375 36 48C35.0625 47.9375 34.5625 47.4375 34.5 46.5V34.5C34.5625 33.5625 35.0625 33.0625 36 33Z" fill="#E62E2E"/>
</svg>
