<svg width="16" height="16" viewBox="0 0 16 16" fill="none" xmlns="http://www.w3.org/2000/svg">
<path d="M5.33398 1.23242L6.50586 4.04492C6.68164 4.57227 6.56445 5.02148 6.1543 5.39258L4.71875 6.56445C5.20703 7.59961 5.85156 8.52734 6.65234 9.34766C7.47266 10.1484 8.40039 10.793 9.43555 11.2812L10.6074 9.8457C10.9785 9.43555 11.4277 9.31836 11.9551 9.49414L14.7676 10.666C15.0605 10.7832 15.2656 10.9688 15.3828 11.2227C15.5 11.4961 15.5293 11.7793 15.4707 12.0723L14.7676 14.6504C14.5723 15.1777 14.1914 15.4609 13.625 15.5C11.1836 15.4805 8.97656 14.8848 7.00391 13.7129C5.03125 12.541 3.45898 10.9688 2.28711 8.99609C1.11523 7.02344 0.519531 4.81641 0.5 2.375C0.539062 1.80859 0.822266 1.42773 1.34961 1.23242L3.92773 0.529297C4.2207 0.470703 4.50391 0.5 4.77734 0.617188C5.03125 0.734375 5.2168 0.939453 5.33398 1.23242Z" fill="#E62E2E"/>
</svg>
