<svg width="54" height="48" viewBox="0 0 54 48" fill="none" xmlns="http://www.w3.org/2000/svg">
<path d="M12 9C12.0625 6.4375 12.9375 4.3125 14.625 2.625C16.3125 0.9375 18.4375 0.0625 21 0C23.5625 0.0625 25.6875 0.9375 27.375 2.625C29.0625 4.3125 29.9375 6.4375 30 9V15H36C37.6875 15.0625 39.0938 15.6562 40.2188 16.7812C41.3438 17.9062 41.9375 19.3125 42 21H39C39 20.125 38.7188 19.4062 38.1562 18.8438C37.5938 18.2812 36.875 18 36 18H6C5.125 18 4.40625 18.2812 3.84375 18.8438C3.28125 19.4062 3 20.125 3 21V39C3 39.875 3.28125 40.5938 3.84375 41.1562C4.40625 41.7188 5.125 42 6 42H15V45H6C4.3125 44.9375 2.90625 44.3438 1.78125 43.2188C0.65625 42.0938 0.0625 40.6875 0 39V21C0.0625 19.3125 0.65625 17.9062 1.78125 16.7812C2.90625 15.6562 4.3125 15.0625 6 15H12V9ZM15 15H27V9C26.9375 7.3125 26.3438 5.90625 25.2188 4.78125C24.0938 3.65625 22.6875 3.0625 21 3C19.3125 3.0625 17.9062 3.65625 16.7812 4.78125C15.6562 5.90625 15.0625 7.3125 15 9V15ZM30 33C30.0625 34.6875 30.6562 36.0938 31.7812 37.2188C32.9062 38.3438 34.3125 38.9375 36 39C37.6875 38.9375 39.0938 38.3438 40.2188 37.2188C41.3438 36.0938 41.9375 34.6875 42 33V31.5C42.0625 30.5625 42.5625 30.0625 43.5 30C44.4375 30.0625 44.9375 30.5625 45 31.5V33C44.9375 35.5625 44.0625 37.6875 42.375 39.375C40.6875 41.0625 38.5625 41.9375 36 42C33.4375 41.9375 31.3125 41.0625 29.625 39.375C27.9375 37.6875 27.0625 35.5625 27 33V31.5C27.0625 30.5625 27.5625 30.0625 28.5 30C29.4375 30.0625 29.9375 30.5625 30 31.5V33ZM18 30C18.0625 28.3125 18.6562 26.9062 19.7812 25.7812C20.9062 24.6562 22.3125 24.0625 24 24H48C49.6875 24.0625 51.0938 24.6562 52.2188 25.7812C53.3438 26.9062 53.9375 28.3125 54 30V42C53.9375 43.6875 53.3438 45.0938 52.2188 46.2188C51.0938 47.3438 49.6875 47.9375 48 48H24C22.3125 47.9375 20.9062 47.3438 19.7812 46.2188C18.6562 45.0938 18.0625 43.6875 18 42V30ZM24 27C23.125 27 22.4062 27.2812 21.8438 27.8438C21.2812 28.4062 21 29.125 21 30V42C21 42.875 21.2812 43.5938 21.8438 44.1562C22.4062 44.7188 23.125 45 24 45H48C48.875 45 49.5938 44.7188 50.1562 44.1562C50.7188 43.5938 51 42.875 51 42V30C51 29.125 50.7188 28.4062 50.1562 27.8438C49.5938 27.2812 48.875 27 48 27H24Z" fill="#E62E2E"/>
</svg>
