<svg width="42" height="44" viewBox="0 0 42 44" fill="none" xmlns="http://www.w3.org/2000/svg">
<path d="M13.5 3.625H4.5C3.5625 3.6875 3.0625 4.1875 3 5.125V14.125C3.0625 15.0625 3.5625 15.5625 4.5 15.625H13.5C14.4375 15.5625 14.9375 15.0625 15 14.125V5.125C14.9375 4.1875 14.4375 3.6875 13.5 3.625ZM4.5 0.625H13.5C14.75 0.6875 15.8125 1.125 16.6875 1.9375C17.5 2.8125 17.9375 3.875 18 5.125V14.125C17.9375 15.375 17.5 16.4375 16.6875 17.3125C15.8125 18.125 14.75 18.5625 13.5 18.625H4.5C3.25 18.5625 2.1875 18.125 1.3125 17.3125C0.5 16.4375 0.0625 15.375 0 14.125V5.125C0.0625 3.875 0.5 2.8125 1.3125 1.9375C2.1875 1.125 3.25 0.6875 4.5 0.625ZM13.5 27.625H4.5C3.5625 27.6875 3.0625 28.1875 3 29.125V38.125C3.0625 39.0625 3.5625 39.5625 4.5 39.625H13.5C14.4375 39.5625 14.9375 39.0625 15 38.125V29.125C14.9375 28.1875 14.4375 27.6875 13.5 27.625ZM4.5 24.625H13.5C14.75 24.6875 15.8125 25.125 16.6875 25.9375C17.5 26.8125 17.9375 27.875 18 29.125V38.125C17.9375 39.375 17.5 40.4375 16.6875 41.3125C15.8125 42.125 14.75 42.5625 13.5 42.625H4.5C3.25 42.5625 2.1875 42.125 1.3125 41.3125C0.5 40.4375 0.0625 39.375 0 38.125V29.125C0.0625 27.875 0.5 26.8125 1.3125 25.9375C2.1875 25.125 3.25 24.6875 4.5 24.625ZM28.5 3.625C27.5625 3.6875 27.0625 4.1875 27 5.125V14.125C27.0625 15.0625 27.5625 15.5625 28.5 15.625H37.5C38.4375 15.5625 38.9375 15.0625 39 14.125V5.125C38.9375 4.1875 38.4375 3.6875 37.5 3.625H28.5ZM24 5.125C24.0625 3.875 24.5 2.8125 25.3125 1.9375C26.1875 1.125 27.25 0.6875 28.5 0.625H37.5C38.75 0.6875 39.8125 1.125 40.6875 1.9375C41.5 2.8125 41.9375 3.875 42 5.125V14.125C41.9375 15.375 41.5 16.4375 40.6875 17.3125C39.8125 18.125 38.75 18.5625 37.5 18.625H28.5C27.25 18.5625 26.1875 18.125 25.3125 17.3125C24.5 16.4375 24.0625 15.375 24 14.125V5.125ZM24 26.125C24.0625 25.1875 24.5625 24.6875 25.5 24.625H31.5C32.4375 24.6875 32.9375 25.1875 33 26.125V32.5H39V26.125C39.0625 25.1875 39.5625 24.6875 40.5 24.625C41.4375 24.6875 41.9375 25.1875 42 26.125V34C41.9375 34.9375 41.4375 35.4375 40.5 35.5H31.5C30.5625 35.4375 30.0625 34.9375 30 34V27.625H27V41.875C26.9375 42.8125 26.4375 43.3125 25.5 43.375C24.5625 43.3125 24.0625 42.8125 24 41.875V26.125ZM8.25 7.375H9.75C10.6875 7.4375 11.1875 7.9375 11.25 8.875V10.375C11.1875 11.3125 10.6875 11.8125 9.75 11.875H8.25C7.3125 11.8125 6.8125 11.3125 6.75 10.375V8.875C6.8125 7.9375 7.3125 7.4375 8.25 7.375ZM6.75 32.875C6.8125 31.9375 7.3125 31.4375 8.25 31.375H9.75C10.6875 31.4375 11.1875 31.9375 11.25 32.875V34.375C11.1875 35.3125 10.6875 35.8125 9.75 35.875H8.25C7.3125 35.8125 6.8125 35.3125 6.75 34.375V32.875ZM32.25 7.375H33.75C34.6875 7.4375 35.1875 7.9375 35.25 8.875V10.375C35.1875 11.3125 34.6875 11.8125 33.75 11.875H32.25C31.3125 11.8125 30.8125 11.3125 30.75 10.375V8.875C30.8125 7.9375 31.3125 7.4375 32.25 7.375ZM30 39.625C30.0625 38.6875 30.5625 38.1875 31.5 38.125H33C33.9375 38.1875 34.4375 38.6875 34.5 39.625V41.125C34.4375 42.0625 33.9375 42.5625 33 42.625H31.5C30.5625 42.5625 30.0625 42.0625 30 41.125V39.625ZM39 38.125H40.5C41.4375 38.1875 41.9375 38.6875 42 39.625V41.125C41.9375 42.0625 41.4375 42.5625 40.5 42.625H39C38.0625 42.5625 37.5625 42.0625 37.5 41.125V39.625C37.5625 38.6875 38.0625 38.1875 39 38.125Z" fill="#E62E2E"/>
</svg>
