<svg width="14" height="10" viewBox="0 0 14 10" fill="none" xmlns="http://www.w3.org/2000/svg">
<path d="M0.4375 3.82812C0.457031 2.83203 0.798828 2.00195 1.46289 1.33789C2.12695 0.673828 2.95703 0.332031 3.95312 0.3125H4.1875C4.46094 0.3125 4.68555 0.400391 4.86133 0.576172C5.03711 0.751953 5.125 0.976562 5.125 1.25C5.125 1.52344 5.03711 1.74805 4.86133 1.92383C4.68555 2.09961 4.46094 2.1875 4.1875 2.1875H3.95312C3.48438 2.20703 3.09375 2.36328 2.78125 2.65625C2.48828 2.96875 2.33203 3.35938 2.3125 3.82812V4.0625H4.1875C4.71484 4.08203 5.1543 4.26758 5.50586 4.61914C5.85742 4.9707 6.04297 5.41016 6.0625 5.9375V7.8125C6.04297 8.33984 5.85742 8.7793 5.50586 9.13086C5.1543 9.48242 4.71484 9.66797 4.1875 9.6875H2.3125C1.78516 9.66797 1.3457 9.48242 0.994141 9.13086C0.642578 8.7793 0.457031 8.33984 0.4375 7.8125V3.82812ZM7.9375 3.82812C7.95703 2.83203 8.29883 2.00195 8.96289 1.33789C9.62695 0.673828 10.457 0.332031 11.4531 0.3125H11.6875C11.9609 0.3125 12.1855 0.400391 12.3613 0.576172C12.5371 0.751953 12.625 0.976562 12.625 1.25C12.625 1.52344 12.5371 1.74805 12.3613 1.92383C12.1855 2.09961 11.9609 2.1875 11.6875 2.1875H11.4531C10.9844 2.20703 10.5938 2.36328 10.2812 2.65625C9.98828 2.96875 9.83203 3.35938 9.8125 3.82812V4.0625H11.6875C12.2148 4.08203 12.6543 4.26758 13.0059 4.61914C13.3574 4.9707 13.543 5.41016 13.5625 5.9375V7.8125C13.543 8.33984 13.3574 8.7793 13.0059 9.13086C12.6543 9.48242 12.2148 9.66797 11.6875 9.6875H9.8125C9.28516 9.66797 8.8457 9.48242 8.49414 9.13086C8.14258 8.7793 7.95703 8.33984 7.9375 7.8125V3.82812Z" fill="white"/>
</svg>
