<svg width="60" height="48" viewBox="0 0 60 48" fill="none" xmlns="http://www.w3.org/2000/svg">
<path d="M36 6C36 7.4375 35.5625 8.6875 34.6875 9.75C33.875 10.75 32.8125 11.4375 31.5 11.8125V45H49.5C50.4375 45.0625 50.9375 45.5625 51 46.5C50.9375 47.4375 50.4375 47.9375 49.5 48H10.5C9.5625 47.9375 9.0625 47.4375 9 46.5C9.0625 45.5625 9.5625 45.0625 10.5 45H28.5V11.8125C27.1875 11.4375 26.125 10.75 25.3125 9.75C24.4375 8.6875 24 7.4375 24 6H10.5C9.5625 5.9375 9.0625 5.4375 9 4.5C9.0625 3.5625 9.5625 3.0625 10.5 3H24.8438C25.9688 1.125 27.6875 0.125 30 0C32.3125 0.125 34.0312 1.125 35.1562 3H48C48.9375 3.0625 49.4375 3.5625 49.5 4.5C49.4375 5.4375 48.9375 5.9375 48 6H36ZM41.3438 33.9375C42.9688 35.25 45.1875 35.9375 48 36C50.8125 35.9375 53.0312 35.25 54.6562 33.9375C56.2188 32.6875 57 31.375 57 30H39C39 31.375 39.7812 32.6875 41.3438 33.9375ZM48 13.7812L39.9375 27H56.0625L48 13.7812ZM36 30V29.8125C36 28.4375 36.375 27.1562 37.125 25.9688L45.75 11.8125C46.25 10.9375 47 10.5 48 10.5C49 10.5 49.75 10.9375 50.25 11.8125L58.875 25.9688C59.625 27.1562 60 28.4375 60 29.8125V30C59.9375 32.5625 58.7812 34.6875 56.5312 36.375C54.2188 38.0625 51.375 38.9375 48 39C44.625 38.9375 41.7812 38.0625 39.4688 36.375C37.2188 34.6875 36.0625 32.5625 36 30ZM3 30C3 31.375 3.78125 32.6875 5.34375 33.9375C6.96875 35.25 9.1875 35.9375 12 36C14.8125 35.9375 17.0312 35.25 18.6562 33.9375C20.2188 32.6875 21 31.375 21 30H3ZM3.9375 27H20.0625L12 13.7812L3.9375 27ZM12 39C8.625 38.9375 5.78125 38.0625 3.46875 36.375C1.21875 34.6875 0.0625 32.5625 0 30V29.8125C0 28.4375 0.375 27.1562 1.125 25.9688L9.75 11.8125C10.25 10.9375 11 10.5 12 10.5C13 10.5 13.75 10.9375 14.25 11.8125L22.875 25.9688C23.625 27.1562 24 28.4375 24 29.8125V30C23.9375 32.5625 22.7812 34.6875 20.5312 36.375C18.2188 38.0625 15.375 38.9375 12 39ZM30 9C30.875 9 31.5938 8.71875 32.1562 8.15625C32.7188 7.59375 33 6.875 33 6C33 5.125 32.7188 4.40625 32.1562 3.84375C31.5938 3.28125 30.875 3 30 3C29.125 3 28.4062 3.28125 27.8438 3.84375C27.2812 4.40625 27 5.125 27 6C27 6.875 27.2812 7.59375 27.8438 8.15625C28.4062 8.71875 29.125 9 30 9Z" fill="#E62E2E"/>
</svg>
