<svg width="20" height="20" viewBox="0 0 20 20" fill="none" xmlns="http://www.w3.org/2000/svg">
<path d="M11.25 7.5C11.6406 7.52604 11.849 7.73438 11.875 8.125C11.849 8.51562 11.6406 8.72396 11.25 8.75H8.75V11.25C8.72396 11.6406 8.51562 11.849 8.125 11.875C7.73438 11.849 7.52604 11.6406 7.5 11.25V8.75H5C4.60938 8.72396 4.40104 8.51562 4.375 8.125C4.40104 7.73438 4.60938 7.52604 5 7.5H7.5V5C7.52604 4.60938 7.73438 4.40104 8.125 4.375C8.51562 4.40104 8.72396 4.60938 8.75 5V7.5H11.25ZM19.8047 18.9453C20.0651 19.2318 20.0651 19.5182 19.8047 19.8047C19.6745 19.9349 19.5312 20 19.375 20C19.2188 20 19.0755 19.9349 18.9453 19.8047L13.3984 14.2969C11.9401 15.5469 10.1823 16.1979 8.125 16.25C5.83333 16.1979 3.91927 15.4036 2.38281 13.8672C0.846354 12.3307 0.0520833 10.4167 0 8.125C0.0520833 5.83333 0.846354 3.91927 2.38281 2.38281C3.91927 0.846354 5.83333 0.0520833 8.125 0C10.4167 0.0520833 12.3307 0.846354 13.8672 2.38281C15.4036 3.91927 16.1979 5.83333 16.25 8.125C16.1979 10.1823 15.5469 11.9401 14.2969 13.3984L19.8047 18.9453ZM8.125 15C10.0781 14.9479 11.6927 14.2839 12.9688 13.0078C14.2708 11.7057 14.9479 10.0781 15 8.125C14.9479 6.17188 14.2839 4.54427 13.0078 3.24219C11.7057 1.96615 10.0781 1.30208 8.125 1.25C6.17188 1.30208 4.54427 1.97917 3.24219 3.28125C1.96615 4.55729 1.30208 6.17188 1.25 8.125C1.30208 10.0781 1.96615 11.6927 3.24219 12.9688C4.54427 14.2708 6.17188 14.9479 8.125 15Z" fill="white"/>
</svg>
