<svg width="30" height="28" viewBox="0 0 30 28" fill="none" xmlns="http://www.w3.org/2000/svg">
<path d="M15.9297 13.125C15.3828 13.0885 15.0911 12.7969 15.0547 12.25V0.820312C15.0911 0.309896 15.3646 0.0364583 15.875 0H15.9297C18.2266 0.0364583 20.2865 0.601562 22.1094 1.69531C23.9688 2.7526 25.4271 4.21094 26.4844 6.07031C27.5781 7.89323 28.1432 9.95312 28.1797 12.25L28.125 12.3047C28.0885 12.8151 27.8333 13.0885 27.3594 13.125H15.9297ZM16.8047 1.80469V11.375H26.375C26.1198 8.78646 25.1172 6.59896 23.3672 4.8125C21.5807 3.0625 19.3932 2.0599 16.8047 1.80469ZM12.4297 2.73438V15.75L21.0156 24.3359C21.3802 24.7734 21.3438 25.1927 20.9062 25.5938C18.7188 27.1615 16.1849 27.9635 13.3047 28C10.862 27.9635 8.65625 27.362 6.6875 26.1953C4.71875 25.0286 3.15104 23.4609 1.98438 21.4922C0.817708 19.5234 0.216146 17.3177 0.179688 14.875C0.252604 11.4844 1.34635 8.60417 3.46094 6.23438C5.53906 3.82812 8.20052 2.36979 11.4453 1.85938C12.0651 1.85938 12.3932 2.15104 12.4297 2.73438ZM11.1719 17.0078C10.8438 16.6432 10.6797 16.224 10.6797 15.75V3.82812C8.1276 4.44792 6.04948 5.76042 4.44531 7.76562C2.80469 9.77083 1.96615 12.1406 1.92969 14.875C2.0026 18.0833 3.11458 20.763 5.26562 22.9141C7.41667 25.0651 10.0964 26.1771 13.3047 26.25C15.3828 26.2135 17.2604 25.7214 18.9375 24.7734L11.1719 17.0078ZM25.7734 24.4453C25.3724 24.737 24.9896 24.737 24.625 24.4453L17.4062 17.2266C17.151 16.9349 17.0964 16.625 17.2422 16.2969C17.388 15.9688 17.6615 15.7865 18.0625 15.75H28.9453C29.5286 15.8229 29.8203 16.1328 29.8203 16.6797C29.3099 19.8151 27.9609 22.4036 25.7734 24.4453ZM27.8516 17.5H20.1406L25.2266 22.5312C26.5026 21.0729 27.3776 19.3958 27.8516 17.5Z" fill="white"/>
</svg>
