<svg width="42" height="42" viewBox="0 0 42 42" fill="none" xmlns="http://www.w3.org/2000/svg">
<path d="M22.5 0C23.75 0.0625 24.8125 0.5 25.6875 1.3125C26.5 2.1875 26.9375 3.25 27 4.5V37.5C26.9375 38.75 26.5 39.8125 25.6875 40.6875C24.8125 41.5 23.75 41.9375 22.5 42H19.5C18.25 41.9375 17.1875 41.5 16.3125 40.6875C15.5 39.8125 15.0625 38.75 15 37.5V4.5C15.0625 3.25 15.5 2.1875 16.3125 1.3125C17.1875 0.5 18.25 0.0625 19.5 0H22.5ZM22.5 3H19.5C18.5625 3.0625 18.0625 3.5625 18 4.5V37.5C18.0625 38.4375 18.5625 38.9375 19.5 39H22.5C23.4375 38.9375 23.9375 38.4375 24 37.5V4.5C23.9375 3.5625 23.4375 3.0625 22.5 3ZM7.5 18C8.75 18.0625 9.8125 18.5 10.6875 19.3125C11.5 20.1875 11.9375 21.25 12 22.5V37.5C11.9375 38.75 11.5 39.8125 10.6875 40.6875C9.8125 41.5 8.75 41.9375 7.5 42H4.5C3.25 41.9375 2.1875 41.5 1.3125 40.6875C0.5 39.8125 0.0625 38.75 0 37.5V22.5C0.0625 21.25 0.5 20.1875 1.3125 19.3125C2.1875 18.5 3.25 18.0625 4.5 18H7.5ZM7.5 21H4.5C3.5625 21.0625 3.0625 21.5625 3 22.5V37.5C3.0625 38.4375 3.5625 38.9375 4.5 39H7.5C8.4375 38.9375 8.9375 38.4375 9 37.5V22.5C8.9375 21.5625 8.4375 21.0625 7.5 21ZM30 10.5C30.0625 9.25 30.5 8.1875 31.3125 7.3125C32.1875 6.5 33.25 6.0625 34.5 6H37.5C38.75 6.0625 39.8125 6.5 40.6875 7.3125C41.5 8.1875 41.9375 9.25 42 10.5V37.5C41.9375 38.75 41.5 39.8125 40.6875 40.6875C39.8125 41.5 38.75 41.9375 37.5 42H34.5C33.25 41.9375 32.1875 41.5 31.3125 40.6875C30.5 39.8125 30.0625 38.75 30 37.5V10.5ZM33 10.5V37.5C33.0625 38.4375 33.5625 38.9375 34.5 39H37.5C38.4375 38.9375 38.9375 38.4375 39 37.5V10.5C38.9375 9.5625 38.4375 9.0625 37.5 9H34.5C33.5625 9.0625 33.0625 9.5625 33 10.5Z" fill="#E62E2E"/>
</svg>
