<svg width="48" height="42" viewBox="0 0 48 42" fill="none" xmlns="http://www.w3.org/2000/svg">
<path d="M3 34.5C3.0625 35.75 3.5 36.8125 4.3125 37.6875C5.1875 38.5 6.25 38.9375 7.5 39H46.5C47.4375 39.0625 47.9375 39.5625 48 40.5C47.9375 41.4375 47.4375 41.9375 46.5 42H7.5C5.375 41.9375 3.59375 41.2188 2.15625 39.8438C0.78125 38.4062 0.0625 36.625 0 34.5V1.5C0.0625 0.5625 0.5625 0.0625 1.5 0C2.4375 0.0625 2.9375 0.5625 3 1.5V34.5ZM31.5 9H43.5C44.4375 9.0625 44.9375 9.5625 45 10.5V22.5C44.9375 23.4375 44.4375 23.9375 43.5 24C42.5625 23.9375 42.0625 23.4375 42 22.5V14.1562L31.0312 25.0312C30.3438 25.6562 29.6562 25.6562 28.9688 25.0312L20.9062 17.1562L11.5312 26.5312C10.8438 27.1562 10.1562 27.1562 9.46875 26.5312C8.84375 25.8438 8.84375 25.1562 9.46875 24.4688L19.9688 13.9688C20.6562 13.3438 21.3438 13.3438 22.0312 13.9688L30 21.8438L39.8438 12H31.5C30.5625 11.9375 30.0625 11.4375 30 10.5C30.0625 9.5625 30.5625 9.0625 31.5 9Z" fill="#E62E2E"/>
</svg>
