<svg width="48" height="48" viewBox="0 0 48 48" fill="none" xmlns="http://www.w3.org/2000/svg">
<path d="M12 21C12.0625 20.0625 12.5625 19.5625 13.5 19.5C14.4375 19.5625 14.9375 20.0625 15 21V27C14.9375 27.9375 14.4375 28.4375 13.5 28.5C12.5625 28.4375 12.0625 27.9375 12 27V21ZM18 12C18.0625 11.0625 18.5625 10.5625 19.5 10.5C20.4375 10.5625 20.9375 11.0625 21 12V27C20.9375 27.9375 20.4375 28.4375 19.5 28.5C18.5625 28.4375 18.0625 27.9375 18 27V12ZM24 18C24.0625 17.0625 24.5625 16.5625 25.5 16.5C26.4375 16.5625 26.9375 17.0625 27 18V27C26.9375 27.9375 26.4375 28.4375 25.5 28.5C24.5625 28.4375 24.0625 27.9375 24 27V18ZM0 19.5C0.125 14 2.03125 9.40625 5.71875 5.71875C9.40625 2.03125 14 0.125 19.5 0C25 0.125 29.5938 2.03125 33.2812 5.71875C36.9688 9.40625 38.875 14 39 19.5C38.9375 24.4375 37.3438 28.6562 34.2188 32.1562L47.5312 45.4688C48.1562 46.1562 48.1562 46.8438 47.5312 47.5312C46.8438 48.1562 46.1562 48.1562 45.4688 47.5312L32.1562 34.2188C28.6562 37.3438 24.4375 38.9375 19.5 39C14 38.875 9.40625 36.9688 5.71875 33.2812C2.03125 29.5938 0.125 25 0 19.5ZM19.5 36C24.1875 35.875 28.0625 34.25 31.125 31.125C34.25 28.0625 35.875 24.1875 36 19.5C35.875 14.8125 34.25 10.9375 31.125 7.875C28.0625 4.75 24.1875 3.125 19.5 3C14.8125 3.125 10.9375 4.75 7.875 7.875C4.75 10.9375 3.125 14.8125 3 19.5C3.125 24.1875 4.75 28.0625 7.875 31.125C10.9375 34.25 14.8125 35.875 19.5 36Z" fill="#E62E2E"/>
</svg>
