<svg width="52" height="48" viewBox="0 0 52 48" fill="none" xmlns="http://www.w3.org/2000/svg">
<path d="M38.9297 19.4062C38.4922 19.0938 38.0859 18.7188 37.7109 18.2812C37.3359 18.6562 36.9297 19.0312 36.4922 19.4062C35.1172 20.4062 33.4922 20.9375 31.6172 21C29.7422 21 28.1172 20.4375 26.7422 19.3125C26.3047 19.0625 25.8984 18.7188 25.5234 18.2812C25.1484 18.7188 24.7422 19.0625 24.3047 19.3125C22.9297 20.4375 21.3047 21 19.4297 21C17.5547 21 15.9297 20.4375 14.5547 19.3125C14.0547 19.0625 13.6484 18.7188 13.3359 18.2812C12.9609 18.7188 12.5234 19.0625 12.0234 19.3125C10.6484 20.4375 9.02344 21 7.14844 21C6.77344 21 6.39844 20.9688 6.02344 20.9062C3.39844 20.4062 1.58594 19 0.585938 16.6875C-0.351562 14.375 -0.164062 12.0625 1.14844 9.75L6.58594 1.21875C7.08594 0.40625 7.83594 0 8.83594 0H42.2109C43.2109 0 43.9609 0.40625 44.4609 1.21875L49.8984 9.75C51.2109 12.0625 51.3984 14.375 50.4609 16.6875C49.4609 19 47.6484 20.4062 45.0234 20.9062C44.6484 20.9688 44.2422 21 43.8047 21C41.9922 20.9375 40.3672 20.4062 38.9297 19.4062ZM42.0234 3H9.02344L3.67969 11.3438C2.86719 12.7812 2.77344 14.1875 3.39844 15.5625C4.02344 16.875 5.02344 17.6875 6.39844 18C6.64844 18 6.89844 18 7.14844 18C8.71094 17.9375 10.0234 17.375 11.0859 16.3125C11.6484 15.625 12.3984 15.2812 13.3359 15.2812C14.2109 15.2812 14.9297 15.625 15.4922 16.3125C16.4922 17.375 17.8047 17.9375 19.4297 18C20.9922 17.9375 22.2734 17.375 23.2734 16.3125C23.8984 15.625 24.6484 15.2812 25.5234 15.2812C26.3359 15.2812 27.0859 15.625 27.7734 16.3125C28.7734 17.375 30.0547 17.9062 31.6172 17.9062C33.2422 17.9062 34.5547 17.375 35.5547 16.3125C36.1172 15.625 36.8359 15.2812 37.7109 15.2812C38.5859 15.2812 39.3359 15.625 39.9609 16.3125C40.8984 17.375 42.1797 17.9062 43.8047 17.9062C43.9297 17.9062 44.0547 17.9062 44.1797 17.9062C44.3047 17.9688 44.4297 18 44.5547 18C45.9922 17.6875 47.0234 16.875 47.6484 15.5625C48.2734 14.1875 48.1797 12.7812 47.3672 11.3438L42.0234 3ZM7.52344 25.5V33H43.5234V25.5C43.5859 24.5625 44.0859 24.0625 45.0234 24C45.9609 24.0625 46.4609 24.5625 46.5234 25.5V42C46.4609 43.6875 45.8672 45.0938 44.7422 46.2188C43.6172 47.3438 42.2109 47.9375 40.5234 48H10.5234C8.83594 47.9375 7.42969 47.3438 6.30469 46.2188C5.17969 45.0938 4.58594 43.6875 4.52344 42V25.5C4.58594 24.5625 5.08594 24.0625 6.02344 24C6.96094 24.0625 7.46094 24.5625 7.52344 25.5ZM7.52344 42C7.52344 42.875 7.80469 43.5938 8.36719 44.1562C8.92969 44.7188 9.64844 45 10.5234 45H40.5234C41.3984 45 42.1172 44.7188 42.6797 44.1562C43.2422 43.5938 43.5234 42.875 43.5234 42V36H7.52344V42Z" fill="#E62E2E"/>
</svg>
