<svg width="24" height="24" viewBox="0 0 24 24" fill="none" xmlns="http://www.w3.org/2000/svg">
<path fill-rule="evenodd" clip-rule="evenodd" d="M16.256 18.5193C16.4706 18.6713 16.7473 18.7093 16.994 18.616C17.2406 18.522 17.422 18.3113 17.4766 18.056C18.0559 15.3334 19.4612 8.44219 19.9886 5.96558C20.0286 5.77892 19.9619 5.58492 19.8152 5.46026C19.6686 5.33559 19.4652 5.2996 19.2839 5.36693C16.4886 6.40157 7.88018 9.6315 4.36159 10.9335C4.13826 11.0161 3.99293 11.2308 4.00027 11.4661C4.00827 11.7021 4.16693 11.9068 4.39559 11.9754C5.97355 12.4474 8.04484 13.1041 8.04484 13.1041C8.04484 13.1041 9.01282 16.0274 9.51747 17.514C9.5808 17.7006 9.7268 17.8473 9.91946 17.898C10.1115 17.948 10.3168 17.8953 10.4601 17.76C11.2708 16.9947 12.5241 15.8114 12.5241 15.8114C12.5241 15.8114 14.9054 17.5573 16.256 18.5193ZM8.91615 12.7348L10.0355 16.4267L10.2841 14.0887C10.2841 14.0887 14.6087 10.1882 17.074 7.96487C17.146 7.89954 17.156 7.79021 17.096 7.71354C17.0366 7.63688 16.9273 7.61888 16.8453 7.67088C13.988 9.4955 8.91615 12.7348 8.91615 12.7348Z" fill="white"/>
</svg>
