<svg width="16" height="16" viewBox="0 0 16 16" fill="none" xmlns="http://www.w3.org/2000/svg">
<path fill-rule="evenodd" clip-rule="evenodd" d="M8.59458 9.16335C8.59458 9.16335 8.87925 9.18868 9.03191 8.99869L9.33057 8.62336C9.47457 8.4367 9.82256 8.31803 10.1632 8.50736C10.6139 8.76202 11.1965 9.16202 11.5959 9.53468C11.8159 9.72001 11.8672 9.99334 11.7172 10.282L11.7159 10.288C11.5612 10.56 11.3552 10.8153 11.0945 11.0533L11.0885 11.0573C10.7952 11.302 10.4579 11.444 10.0972 11.3267L10.0906 11.3173C9.44257 11.134 7.88793 10.3413 6.89728 9.55135C5.27664 8.2727 4.12465 6.1634 3.80599 5.03275L3.79599 5.02608C3.67866 4.66409 3.82199 4.32676 4.06532 4.0341L4.06999 4.02877C4.30798 3.7681 4.56265 3.56144 4.83531 3.40744L4.84131 3.40611C5.1293 3.25611 5.40263 3.30678 5.58863 3.52744C5.83329 3.7801 6.29262 4.38809 6.61528 4.96008C6.80461 5.30008 6.68595 5.64874 6.49995 5.79207L6.12396 6.09073C5.93463 6.24406 5.95929 6.52873 5.95929 6.52873C5.95929 6.52873 6.51528 8.63269 8.59458 9.16335ZM11.8659 7.41938C11.7545 7.41938 11.6639 7.32938 11.6632 7.21805C11.6539 5.99807 11.2872 5.02608 10.5739 4.33009C9.85923 3.63344 8.95591 3.27611 7.88926 3.26878C7.77726 3.26811 7.68726 3.17678 7.6886 3.06478C7.68926 2.95345 7.77926 2.86412 7.8906 2.86412H7.89193C9.06658 2.87212 10.0639 3.26811 10.8565 4.0401C11.6499 4.81475 12.0579 5.8834 12.0679 7.21538C12.0685 7.32671 11.9792 7.41805 11.8672 7.41938H11.8659ZM10.8025 7.00339H10.7979C10.6859 7.00072 10.5972 6.90805 10.5999 6.79672C10.6159 6.10473 10.4179 5.54474 9.9959 5.08408C9.5759 4.62476 8.99924 4.37409 8.23259 4.31809C8.12126 4.30943 8.03726 4.21276 8.04526 4.10143C8.05393 3.9901 8.15059 3.9061 8.26192 3.9141C9.12458 3.97743 9.80857 4.27943 10.2946 4.81075C10.7832 5.34408 11.0225 6.0154 11.0045 6.80539C11.0019 6.91539 10.9119 7.00339 10.8025 7.00339ZM9.7639 6.65539C9.65657 6.65539 9.56724 6.57139 9.5619 6.46273C9.5279 5.77607 9.20391 5.44008 8.54392 5.40408C8.43192 5.39808 8.34659 5.30275 8.35259 5.19141C8.35859 5.07942 8.45325 4.99408 8.56525 5.00008C9.43724 5.04675 9.92123 5.54607 9.9659 6.44273C9.9719 6.55406 9.8859 6.64939 9.7739 6.65472L9.7639 6.65539ZM14.3085 8.96802C13.9052 12.2193 11.5272 12.4246 11.0885 12.5653C10.9019 12.6253 9.16724 13.0566 6.98728 12.9146C6.98728 12.9146 5.36197 14.8746 4.85464 15.3846C4.77531 15.4639 4.68264 15.4959 4.61998 15.4813C4.53265 15.4599 4.50865 15.3559 4.50998 15.2053L4.52331 12.528C1.3487 11.646 1.53336 8.3307 1.56936 6.59539C1.60536 4.86009 1.93136 3.43811 2.90001 2.48212C4.63998 0.906148 8.22459 1.14148 8.22459 1.14148C11.2519 1.15481 12.7025 2.06613 13.0392 2.37146C14.1558 3.32744 14.7245 5.61607 14.3085 8.96802ZM13.8738 1.55947C13.4758 1.19414 11.8692 0.0274948 8.29059 0.0114951C8.29059 0.0114951 4.07065 -0.243168 2.01335 1.6448C0.868038 2.79012 0.465378 4.46542 0.422712 6.54339C0.380713 8.62203 0.32538 12.5153 4.07865 13.5713L4.08265 13.5726L4.07999 15.1833C4.07999 15.1833 4.05665 15.8359 4.48598 15.9692C5.00531 16.1299 5.30997 15.6346 5.80663 15.0999C6.07862 14.8066 6.45395 14.3759 6.73795 14.0466C9.30524 14.2613 11.2792 13.7686 11.5039 13.6959C12.0219 13.5273 14.9552 13.152 15.4325 9.25802C15.9245 5.24341 15.1938 2.70479 13.8738 1.55947Z" fill="#E62E2E"/>
</svg>
