<svg width="24" height="24" viewBox="0 0 24 24" fill="none" xmlns="http://www.w3.org/2000/svg">
<path fill-rule="evenodd" clip-rule="evenodd" d="M12.5952 13.1634C12.5952 13.1634 12.8799 13.1887 13.0325 12.9987L13.3312 12.6234C13.4752 12.4367 13.8232 12.318 14.1638 12.5074C14.6145 12.762 15.1972 13.162 15.5965 13.5347C15.8165 13.72 15.8678 13.9933 15.7178 14.282L15.7165 14.288C15.5618 14.56 15.3558 14.8153 15.0952 15.0533L15.0892 15.0573C14.7958 15.302 14.4585 15.444 14.0978 15.3267L14.0912 15.3173C13.4432 15.134 11.8885 14.3413 10.8979 13.5513C9.27725 12.2727 8.12526 10.1634 7.8066 9.03275L7.7966 9.02608C7.67927 8.66409 7.8226 8.32676 8.06593 8.0341L8.0706 8.02877C8.30859 7.7681 8.56326 7.56144 8.83592 7.40744L8.84192 7.40611C9.12992 7.25611 9.40324 7.30678 9.58924 7.52744C9.8339 7.7801 10.2932 8.38809 10.6159 8.96008C10.8052 9.30008 10.6866 9.64874 10.5006 9.79207L10.1246 10.0907C9.93524 10.2441 9.9599 10.5287 9.9599 10.5287C9.9599 10.5287 10.5159 12.6327 12.5952 13.1634ZM15.8665 11.4194C15.7551 11.4194 15.6645 11.3294 15.6638 11.218C15.6545 9.99807 15.2878 9.02608 14.5745 8.33009C13.8598 7.63344 12.9565 7.27611 11.8899 7.26878C11.7779 7.26811 11.6879 7.17678 11.6892 7.06478C11.6899 6.95345 11.7799 6.86412 11.8912 6.86412H11.8925C13.0672 6.87212 14.0645 7.26811 14.8572 8.0401C15.6505 8.81475 16.0585 9.8834 16.0685 11.2154C16.0691 11.3267 15.9798 11.418 15.8678 11.4194H15.8665ZM14.8032 11.0034H14.7985C14.6865 11.0007 14.5978 10.9081 14.6005 10.7967C14.6165 10.1047 14.4185 9.54474 13.9965 9.08408C13.5765 8.62476 12.9999 8.37409 12.2332 8.31809C12.1219 8.30943 12.0379 8.21276 12.0459 8.10143C12.0545 7.9901 12.1512 7.9061 12.2625 7.9141C13.1252 7.97743 13.8092 8.27943 14.2952 8.81075C14.7838 9.34408 15.0232 10.0154 15.0052 10.8054C15.0025 10.9154 14.9125 11.0034 14.8032 11.0034ZM13.7645 10.6554C13.6572 10.6554 13.5678 10.5714 13.5625 10.4627C13.5285 9.77607 13.2045 9.44008 12.5445 9.40408C12.4325 9.39808 12.3472 9.30275 12.3532 9.19141C12.3592 9.07942 12.4539 8.99408 12.5659 9.00008C13.4378 9.04675 13.9218 9.54607 13.9665 10.4427C13.9725 10.5541 13.8865 10.6494 13.7745 10.6547L13.7645 10.6554ZM18.3091 12.968C17.9058 16.2193 15.5278 16.4246 15.0892 16.5653C14.9025 16.6253 13.1679 17.0566 10.9879 16.9146C10.9879 16.9146 9.36258 18.8746 8.85525 19.3846C8.77592 19.4639 8.68326 19.4959 8.62059 19.4813C8.53326 19.4599 8.50926 19.3559 8.51059 19.2053L8.52392 16.528C5.34931 15.646 5.53397 12.3307 5.56997 10.5954C5.60597 8.86009 5.93197 7.43811 6.90062 6.48212C8.64059 4.90615 12.2252 5.14148 12.2252 5.14148C15.2525 5.15481 16.7031 6.06613 17.0398 6.37146C18.1564 7.32744 18.7251 9.61607 18.3091 12.968ZM17.8744 5.55947C17.4765 5.19414 15.8698 4.02749 12.2912 4.0115C12.2912 4.0115 8.07127 3.75683 6.01396 5.6448C4.86865 6.79012 4.46599 8.46542 4.42332 10.5434C4.38132 12.622 4.32599 16.5153 8.07926 17.5713L8.08326 17.5726L8.0806 19.1833C8.0806 19.1833 8.05727 19.8359 8.48659 19.9692C9.00592 20.1299 9.31058 19.6346 9.80724 19.0999C10.0792 18.8066 10.4546 18.3759 10.7386 18.0466C13.3059 18.2613 15.2798 17.7686 15.5045 17.6959C16.0225 17.5273 18.9558 17.152 19.4331 13.258C19.9251 9.24341 19.1944 6.70479 17.8744 5.55947Z" fill="white"/>
</svg>
