<svg width="24" height="24" viewBox="0 0 24 24" fill="none" xmlns="http://www.w3.org/2000/svg">
<path d="M12.7743 16.6624C13.1803 16.6624 13.3463 16.3918 13.3416 16.0525C13.3209 14.7745 13.8176 14.0865 14.7142 14.9832C15.7062 15.9751 15.9115 16.6624 17.1161 16.6624H19.2494C19.788 16.6624 20 16.4891 20 16.2171C20 15.6418 19.0527 14.6265 18.2501 13.8812C17.1261 12.8379 17.0735 12.8133 18.0414 11.5573C19.242 9.99805 20.8126 8.00014 19.4234 8.00014H16.7695C16.2548 8.00014 16.2175 8.29012 16.0342 8.72211C15.3709 10.2867 14.1102 12.3133 13.6316 12.0033C13.131 11.68 13.3603 10.3994 13.3983 8.49611C13.4083 7.99347 13.4056 7.64882 12.6376 7.47016C12.2183 7.37349 11.8103 7.3335 11.4317 7.3335C9.91642 7.3335 8.87113 7.9688 9.46511 8.07947C10.5124 8.27479 10.4117 10.5407 10.1677 11.5193C9.74243 13.2233 8.14383 10.17 7.47786 8.64944C7.3172 8.28412 7.26786 8.00014 6.69455 8.00014H4.52464C4.19666 8.00014 4 8.1068 4 8.34412C4 8.74544 5.97325 12.8239 7.85717 14.8572C9.69443 16.8404 11.5104 16.6624 12.7743 16.6624Z" fill="white"/>
</svg>
