<svg width="16" height="10" viewBox="0 0 16 10" fill="none" xmlns="http://www.w3.org/2000/svg">
<path d="M8.7743 9.66195C9.18028 9.66195 9.34628 9.3913 9.34161 9.05198C9.32094 7.77403 9.81759 7.08606 10.7142 7.98269C11.7062 8.97465 11.9115 9.66195 13.1161 9.66195H15.2494C15.788 9.66195 16 9.48863 16 9.21664C16 8.64133 15.0527 7.62604 14.2501 6.88073C13.1261 5.83744 13.0735 5.81278 14.0414 4.55683C15.242 2.99756 16.8126 0.999647 15.4234 0.999647H12.7695C12.2548 0.999647 12.2175 1.28963 12.0342 1.72162C11.3709 3.28622 10.1102 5.3128 9.6316 5.00281C9.13095 4.67949 9.36028 3.39888 9.39828 1.49563C9.40827 0.99298 9.40561 0.648328 8.63764 0.469669C8.21832 0.373006 7.81034 0.333008 7.43169 0.333008C5.91642 0.333008 4.87113 0.968315 5.46511 1.07898C6.5124 1.2743 6.41173 3.54021 6.16774 4.51883C5.74243 6.22276 4.14383 3.16956 3.47786 1.64895C3.3172 1.28363 3.26786 0.999647 2.69455 0.999647H0.524645C0.196658 0.999647 0 1.10631 0 1.34363C0 1.74495 1.97325 5.82345 3.85717 7.85669C5.69443 9.83994 7.51035 9.66195 8.7743 9.66195Z" fill="#E62E2E"/>
</svg>
