<svg width="28" height="28" viewBox="0 0 28 28" fill="none" xmlns="http://www.w3.org/2000/svg">
<path d="M14 0C16.625 0.0364583 18.9766 0.674479 21.0547 1.91406C23.1693 3.15365 24.8464 4.83073 26.0859 6.94531C27.3255 9.02344 27.9635 11.375 28 14C27.9635 16.625 27.3255 18.9766 26.0859 21.0547C24.8464 23.1693 23.1693 24.8464 21.0547 26.0859C18.9766 27.3255 16.625 27.9635 14 28C11.375 27.9635 9.02344 27.3255 6.94531 26.0859C4.83073 24.8464 3.15365 23.1693 1.91406 21.0547C0.674479 18.9766 0.0364583 16.625 0 14C0.0364583 11.375 0.674479 9.02344 1.91406 6.94531C3.15365 4.83073 4.83073 3.15365 6.94531 1.91406C9.02344 0.674479 11.375 0.0364583 14 0ZM14 26.25C14.474 26.25 15.0026 26.013 15.5859 25.5391C16.1693 25.0651 16.7708 24.263 17.3906 23.1328C17.9375 22.0026 18.3568 20.7083 18.6484 19.25H9.29688C9.625 20.7083 10.0625 22.0026 10.6094 23.1328C11.2292 24.263 11.8307 25.0651 12.4141 25.5391C12.9974 26.013 13.526 26.25 14 26.25ZM8.96875 17.5H19.0312C19.1771 16.4062 19.25 15.2396 19.25 14C19.25 12.7604 19.1771 11.5938 19.0312 10.5H8.96875C8.82292 11.5938 8.75 12.7604 8.75 14C8.75 15.2396 8.82292 16.4062 8.96875 17.5ZM18.6484 8.75C18.3568 7.25521 17.9375 5.96094 17.3906 4.86719C16.7708 3.73698 16.1693 2.9349 15.5859 2.46094C15.0026 1.98698 14.474 1.75 14 1.75C13.526 1.75 12.9974 1.98698 12.4141 2.46094C11.8307 2.9349 11.2292 3.73698 10.6094 4.86719C10.0625 5.96094 9.625 7.25521 9.29688 8.75H18.6484ZM20.7266 10.5C20.9089 11.6302 21 12.7969 21 14C21 15.2031 20.9089 16.3698 20.7266 17.5H25.7578C26.0859 16.3698 26.25 15.2031 26.25 14C26.25 12.7969 26.0859 11.6302 25.7578 10.5H20.7266ZM17.9375 2.40625C19.1042 3.97396 19.9609 6.08854 20.5078 8.75H25.0469C24.3542 7.25521 23.388 5.96094 22.1484 4.86719C20.9089 3.77344 19.5052 2.95312 17.9375 2.40625ZM10.1172 2.40625C8.51302 2.95312 7.09115 3.77344 5.85156 4.86719C4.61198 5.96094 3.64583 7.25521 2.95312 8.75H7.49219C8.03906 6.08854 8.91406 3.97396 10.1172 2.40625ZM1.75 14C1.75 15.2031 1.91406 16.3698 2.24219 17.5H7.21875C7.07292 16.3698 7 15.2031 7 14C7 12.7969 7.07292 11.6302 7.21875 10.5H2.24219C1.91406 11.6302 1.75 12.7969 1.75 14ZM25.0469 19.25H20.5078C19.9609 21.9115 19.1042 24.026 17.9375 25.5938C19.5052 25.0469 20.9089 24.2266 22.1484 23.1328C23.388 22.0391 24.3542 20.7448 25.0469 19.25ZM7.49219 19.25H2.95312C3.64583 20.7448 4.61198 22.0391 5.85156 23.1328C7.09115 24.2266 8.51302 25.0469 10.1172 25.5938C8.91406 24.026 8.03906 21.9115 7.49219 19.25Z" fill="white"/>
</svg>
