<svg width="24" height="24" viewBox="0 0 24 24" fill="none" xmlns="http://www.w3.org/2000/svg">
<path d="M4.03906 20L5.16373 15.8913C4.46973 14.6887 4.10506 13.3253 4.10573 11.9273C4.10773 7.55667 7.6644 4 12.0344 4C14.1551 4.00067 16.1457 4.82667 17.6431 6.32533C19.1397 7.824 19.9637 9.816 19.9631 11.9347C19.9611 16.306 16.4044 19.8627 12.0344 19.8627C10.7077 19.862 9.4004 19.5293 8.2424 18.8973L4.03906 20ZM8.43706 17.462C9.5544 18.1253 10.6211 18.5227 12.0317 18.5233C15.6637 18.5233 18.6224 15.5673 18.6244 11.9333C18.6257 8.292 15.6811 5.34 12.0371 5.33867C8.4024 5.33867 5.44573 8.29467 5.4444 11.928C5.44373 13.4113 5.8784 14.522 6.6084 15.684L5.9424 18.116L8.43706 17.462ZM16.0284 13.8193C15.9791 13.7367 15.8471 13.6873 15.6484 13.588C15.4504 13.4887 14.4764 13.0093 14.2944 12.9433C14.1131 12.8773 13.9811 12.844 13.8484 13.0427C13.7164 13.2407 13.3364 13.6873 13.2211 13.8193C13.1057 13.9513 12.9897 13.968 12.7917 13.8687C12.5937 13.7693 11.9551 13.5607 11.1984 12.8853C10.6097 12.36 10.2117 11.7113 10.0964 11.5127C9.98106 11.3147 10.0844 11.2073 10.1831 11.1087C10.2724 11.02 10.3811 10.8773 10.4804 10.7613C10.5811 10.6467 10.6137 10.564 10.6804 10.4313C10.7464 10.2993 10.7137 10.1833 10.6637 10.084C10.6137 9.98533 10.2177 9.01 10.0531 8.61333C9.89173 8.22733 9.7284 8.27933 9.60706 8.27333L9.22706 8.26667C9.09506 8.26667 8.8804 8.316 8.69906 8.51467C8.51773 8.71333 8.00573 9.192 8.00573 10.1673C8.00573 11.1427 8.71573 12.0847 8.8144 12.2167C8.91373 12.3487 10.2111 14.35 12.1984 15.208C12.6711 15.412 13.0404 15.534 13.3277 15.6253C13.8024 15.776 14.2344 15.7547 14.5757 15.704C14.9564 15.6473 15.7477 15.2247 15.9131 14.762C16.0784 14.2987 16.0784 13.902 16.0284 13.8193Z" fill="white"/>
</svg>
