<svg width="16" height="16" viewBox="0 0 16 16" fill="none" xmlns="http://www.w3.org/2000/svg">
<path d="M0.0379639 16L1.16263 11.8913C0.46863 10.6887 0.103964 9.32533 0.104631 7.92733C0.106631 3.55667 3.6633 0 8.0333 0C10.154 0.000666667 12.1446 0.826667 13.642 2.32533C15.1386 3.824 15.9626 5.816 15.962 7.93467C15.96 12.306 12.4033 15.8627 8.0333 15.8627C6.70663 15.862 5.3993 15.5293 4.2413 14.8973L0.0379639 16ZM4.43596 13.462C5.5533 14.1253 6.61996 14.5227 8.03063 14.5233C11.6626 14.5233 14.6213 11.5673 14.6233 7.93333C14.6246 4.292 11.68 1.34 8.03596 1.33867C4.4013 1.33867 1.44463 4.29467 1.4433 7.928C1.44263 9.41133 1.8773 10.522 2.6073 11.684L1.9413 14.116L4.43596 13.462ZM12.0273 9.81933C11.978 9.73667 11.846 9.68733 11.6473 9.588C11.4493 9.48867 10.4753 9.00933 10.2933 8.94333C10.112 8.87733 9.97996 8.844 9.8473 9.04267C9.7153 9.24067 9.3353 9.68733 9.21996 9.81933C9.10463 9.95133 8.98863 9.968 8.79063 9.86867C8.59263 9.76933 7.95396 9.56067 7.1973 8.88533C6.60863 8.36 6.21063 7.71133 6.0953 7.51267C5.97996 7.31467 6.0833 7.20733 6.18196 7.10867C6.2713 7.02 6.37996 6.87733 6.4793 6.76133C6.57996 6.64667 6.61263 6.564 6.6793 6.43133C6.7453 6.29933 6.71263 6.18333 6.66263 6.084C6.61263 5.98533 6.21663 5.01 6.05196 4.61333C5.89063 4.22733 5.7273 4.27933 5.60596 4.27333L5.22596 4.26667C5.09396 4.26667 4.8793 4.316 4.69796 4.51467C4.51663 4.71333 4.00463 5.192 4.00463 6.16733C4.00463 7.14267 4.71463 8.08467 4.8133 8.21667C4.91263 8.34867 6.20996 10.35 8.1973 11.208C8.66996 11.412 9.0393 11.534 9.32663 11.6253C9.8013 11.776 10.2333 11.7547 10.5746 11.704C10.9553 11.6473 11.7466 11.2247 11.912 10.762C12.0773 10.2987 12.0773 9.902 12.0273 9.81933Z" fill="#E62E2E"/>
</svg>
